<?xml version="1.0" standalone="no"?>
<!DOCTYPE svg PUBLIC "-//W3C//DTD SVG 20010904//EN"
 "http://www.w3.org/TR/2001/REC-SVG-20010904/DTD/svg10.dtd">
<svg version="1.0" xmlns="http://www.w3.org/2000/svg"
 width="1024.000000pt" height="1024.000000pt" viewBox="0 0 1024.000000 1024.000000"
 preserveAspectRatio="xMidYMid meet">

<g transform="translate(0.000000,1024.000000) scale(0.100000,-0.100000)"
fill="#000000" stroke="none">
<path d="M4545 9640 c-60 -4 -134 -8 -164 -9 -53 -1 -53 -1 -38 -24 41 -63 46
-106 62 -534 8 -230 17 -451 19 -490 5 -63 3 -73 -11 -73 -9 0 -22 8 -30 18
-41 51 -509 705 -598 835 -33 49 -65 95 -71 104 -10 14 -37 7 -240 -64 -126
-44 -255 -88 -288 -97 l-58 -17 6 -42 c10 -74 16 -193 31 -572 8 -203 18 -403
21 -442 4 -40 2 -73 -2 -72 -17 0 -493 652 -565 771 -19 32 -37 58 -41 58 -13
0 -448 -317 -448 -326 0 -3 37 -53 83 -112 126 -164 167 -220 167 -230 0 -17
-141 -135 -150 -126 -22 22 -183 274 -203 317 -12 26 -25 46 -29 45 -14 -5
-428 -410 -428 -418 0 -5 27 -28 60 -51 36 -25 92 -81 138 -138 265 -328 523
-653 520 -656 -3 -4 -77 40 -207 122 -46 29 -87 53 -90 53 -9 0 -121 -190
-317 -537 -14 -23 -29 -45 -34 -48 -13 -8 -210 94 -210 109 0 19 244 401 336
527 19 26 34 49 34 52 0 3 -39 27 -87 53 -103 55 -332 186 -370 211 -16 11
-28 13 -30 7 -2 -5 -34 -52 -71 -103 -140 -189 -308 -474 -357 -604 -68 -181
-29 -355 109 -493 71 -70 295 -220 411 -275 93 -43 143 -54 319 -69 71 -6 138
-16 149 -21 10 -6 20 -9 22 -7 2 2 34 62 70 133 204 395 378 638 673 936 l164
167 -18 28 c-10 16 -44 58 -76 94 -66 74 -138 168 -138 180 0 4 25 29 55 54
l54 47 35 -38 c19 -21 71 -84 116 -138 45 -55 86 -104 90 -109 5 -4 68 31 142
79 181 119 343 212 527 301 116 56 151 77 143 87 -5 6 -21 49 -35 94 l-25 82
41 20 c80 39 159 62 173 50 11 -9 52 -107 69 -166 3 -13 9 -23 13 -23 4 0 58
18 119 40 179 63 249 78 548 120 325 45 761 37 1119 -20 88 -14 316 -72 386
-99 56 -22 69 -18 70 21 0 23 46 148 58 160 21 21 222 -53 222 -81 0 -17 -32
-133 -45 -163 -5 -13 -2 -20 11 -24 75 -26 285 -134 419 -215 198 -119 359
-232 585 -412 96 -77 198 -151 227 -164 148 -68 331 -24 464 114 75 77 215
245 272 324 78 111 127 230 127 310 0 103 -84 263 -202 381 -80 82 -258 229
-465 385 -89 68 -165 127 -168 133 -13 22 -32 8 -57 -42 -14 -29 -72 -111
-128 -183 -55 -71 -173 -222 -260 -335 -257 -331 -274 -353 -287 -358 -16 -5
-16 23 -3 229 5 85 14 251 20 369 16 320 29 558 36 621 l6 56 -69 18 c-37 10
-184 58 -326 107 -143 49 -260 88 -262 86 -1 -2 -13 -23 -25 -48 -13 -24 -72
-121 -133 -215 -61 -93 -158 -244 -217 -335 -301 -466 -313 -484 -327 -464 -7
11 -60 90 -118 177 l-105 157 34 38 c88 98 123 266 96 456 -25 171 -117 276
-290 331 -47 15 -100 18 -350 20 -162 2 -344 -1 -405 -5z m761 -118 c78 -29
127 -70 158 -135 23 -46 26 -68 30 -187 l5 -135 -9 120 c-5 66 -15 131 -21
145 -7 14 -13 33 -14 42 -2 21 -55 91 -63 84 -3 -4 -15 3 -27 14 -12 11 -57
29 -101 41 -71 18 -106 20 -349 19 -264 0 -332 -3 -387 -12 -17 -3 -26 -1 -25
6 3 16 166 23 477 21 247 -1 269 -3 326 -23z m105 -94 c11 -21 11 -22 -4 -9
-10 7 -17 17 -17 22 0 15 9 10 21 -13z m1092 -33 c63 -29 402 -145 423 -145 8
0 14 -6 14 -14 0 -12 -11 -11 -62 5 -35 11 -71 25 -81 30 -11 6 -65 25 -120
44 -56 18 -126 42 -155 54 -30 12 -58 18 -64 15 -7 -4 -8 -2 -4 4 4 7 2 12 -3
12 -6 0 -11 -7 -11 -17 0 -9 -3 -14 -6 -10 -5 5 4 47 10 47 2 0 29 -11 59 -25z
m-2823 -33 c0 -17 493 -717 593 -842 7 -8 20 -28 31 -44 10 -16 30 -40 44 -53
14 -13 22 -26 19 -30 -4 -3 -18 6 -31 20 -13 14 -21 28 -18 31 3 3 1 6 -5 6
-6 0 -33 30 -60 68 -27 37 -94 128 -148 202 -54 74 -103 138 -109 142 -6 4
-11 12 -11 17 0 5 -23 40 -51 78 -28 37 -53 75 -57 83 -4 8 -34 53 -67 100
-33 47 -77 110 -98 140 -20 30 -40 59 -43 64 -4 5 -44 -6 -90 -24 -208 -81
-355 -128 -344 -111 2 5 19 11 36 15 38 7 225 74 324 115 77 33 85 35 85 23z
m2724 -28 c-11 -15 -27 -38 -36 -53 -36 -55 -44 -65 -63 -85 -11 -12 -14 -15
-7 -6 6 9 12 20 12 24 0 5 10 21 23 36 12 15 35 49 50 75 15 26 31 45 34 42 3
-4 -3 -18 -13 -33z m-1496 -31 c-10 -2 -26 -2 -35 0 -10 3 -2 5 17 5 19 0 27
-2 18 -5z m190 0 c-26 -2 -71 -2 -100 0 -29 2 -8 3 47 3 55 0 79 -1 53 -3z
m149 -155 c-3 -7 -5 -2 -5 12 0 14 2 19 5 13 2 -7 2 -19 0 -25z m1019 -10 c-9
-13 -22 -37 -30 -54 -8 -17 -19 -35 -26 -39 -6 -4 -4 8 6 26 19 37 55 89 62
89 2 0 -3 -10 -12 -22z m-1469 -55 c-2 -16 -4 -5 -4 22 0 28 2 40 4 28 2 -13
2 -35 0 -50z m-280 35 c-3 -8 -6 -5 -6 6 -1 11 2 17 5 13 3 -3 4 -12 1 -19z
m0 -75 c-3 -10 -5 -2 -5 17 0 19 2 27 5 18 2 -10 2 -26 0 -35z m676 2 c-2 -6
-68 -11 -165 -13 -90 -2 -160 -1 -156 3 3 4 66 9 140 12 73 3 135 7 138 10 8
8 45 -2 43 -12z m1464 -17 c-3 -7 -5 -2 -5 12 0 14 2 19 5 13 2 -7 2 -19 0
-25z m-1860 -25 c-3 -10 -5 -4 -5 12 0 17 2 24 5 18 2 -7 2 -21 0 -30z m1386
-3 c-19 -32 -70 -95 -56 -70 14 27 65 100 70 100 2 0 -4 -14 -14 -30z m325 -9
c-13 -15 -25 -27 -27 -25 -4 4 39 54 47 54 2 0 -7 -13 -20 -29z m-1045 -16
c-9 -19 -20 -35 -25 -35 -10 0 24 69 34 70 4 0 0 -16 -9 -35z m1460 -16 c-6
-6 -7 3 -4 23 4 28 6 29 9 9 2 -13 0 -27 -5 -32z m-3396 9 c-3 -8 -6 -5 -6 6
-1 11 2 17 5 13 3 -3 4 -12 1 -19z m1287 -227 c3 -95 3 -171 1 -169 -3 3 -7
63 -10 134 -3 71 -7 163 -9 204 -3 53 -2 65 4 40 4 -19 10 -113 14 -209z m581
169 c-3 -5 -11 -10 -16 -10 -6 0 -7 5 -4 10 3 6 11 10 16 10 6 0 7 -4 4 -10z
m725 -10 c0 -5 -5 -10 -11 -10 -5 0 -7 5 -4 10 3 6 8 10 11 10 2 0 4 -4 4 -10z
m330 6 c0 -2 -8 -10 -17 -17 -16 -13 -17 -12 -4 4 13 16 21 21 21 13z m467
-48 c-2 -13 -4 -5 -4 17 -1 22 1 32 4 23 2 -10 2 -28 0 -40z m-1947 22 c6 -11
8 -20 6 -20 -3 0 -10 9 -16 20 -6 11 -8 20 -6 20 3 0 10 -9 16 -20z m370 11
c0 -5 -11 -11 -25 -13 -24 -5 -32 2 -18 15 9 10 43 8 43 -2z m760 -21 c0 -5
-5 -10 -11 -10 -5 0 -7 5 -4 10 3 6 8 10 11 10 2 0 4 -4 4 -10z m-3553 -32
c-3 -8 -6 -5 -6 6 -1 11 2 17 5 13 3 -3 4 -12 1 -19z m2754 1 c8 -15 8 -19 0
-15 -6 4 -11 2 -11 -3 0 -6 7 -11 15 -11 8 0 28 -20 45 -45 17 -25 28 -45 23
-45 -4 0 11 -18 32 -40 21 -22 35 -40 30 -40 -5 0 -2 -6 7 -12 8 -7 18 -22 22
-33 5 -15 0 -12 -23 10 -20 20 -26 32 -18 37 8 5 6 8 -5 8 -10 0 -25 12 -35
28 -9 15 -30 41 -46 59 -16 17 -26 36 -23 41 3 6 1 14 -5 18 -8 5 -9 3 -4 -7
8 -12 6 -12 -8 -1 -9 8 -15 26 -14 43 2 35 3 35 18 8z m-2781 -19 c0 -5 -5
-10 -11 -10 -5 0 -7 5 -4 10 3 6 8 10 11 10 2 0 4 -4 4 -10z m54 -21 c-2 -4 2
-9 10 -12 15 -6 29 -24 258 -338 179 -246 314 -425 350 -463 15 -17 24 -34 21
-38 -5 -9 -30 23 -294 373 -129 172 -189 255 -293 403 -16 22 -36 46 -44 52
-8 6 -17 22 -19 35 -2 18 -1 20 6 9 5 -8 8 -17 5 -21z m3477 -2 c-10 -9 -11
-8 -5 6 3 10 9 15 12 12 3 -3 0 -11 -7 -18z m1789 -61 c47 -37 119 -91 160
-120 82 -59 121 -96 97 -92 -19 2 -157 105 -157 117 0 5 -5 9 -11 9 -10 0
-177 126 -192 145 -5 6 -14 1 -25 -14 -9 -13 -26 -33 -38 -46 -26 -28 -164
-207 -267 -345 -114 -153 -148 -196 -189 -243 -21 -23 -38 -45 -38 -49 0 -5
-5 -8 -11 -8 -9 0 33 63 57 85 6 6 30 35 52 65 22 30 70 93 106 140 37 47 99
128 139 180 156 205 201 257 217 249 8 -4 53 -37 100 -73z m-5364 61 c-10 -7
-39 -28 -65 -47 -25 -19 -40 -27 -33 -17 15 17 101 77 111 76 3 0 -2 -6 -13
-12z m4431 -49 c-2 -13 -4 -5 -4 17 -1 22 1 32 4 23 2 -10 2 -28 0 -40z
m-1819 -70 c38 -62 81 -133 95 -158 28 -50 80 -77 98 -49 6 10 9 10 9 2 0 -8
15 -13 40 -13 25 0 40 5 41 13 0 10 2 10 6 0 2 -7 11 -13 19 -13 9 0 12 5 8
13 -6 10 -4 10 7 0 7 -8 40 -13 77 -13 46 0 68 -5 80 -17 16 -16 16 -16 -3 -8
-11 5 -87 10 -170 12 -82 2 -159 6 -171 8 -11 3 -29 22 -40 42 -10 21 -44 79
-75 128 -89 144 -101 165 -96 165 3 0 36 -51 75 -112z m-1551 40 c-3 -7 -5 -2
-5 12 0 14 2 19 5 13 2 -7 2 -19 0 -25z m2474 5 c-12 -20 -14 -14 -5 12 4 9 9
14 11 11 3 -2 0 -13 -6 -23z m369 10 c14 -6 72 -28 130 -48 58 -20 115 -43
127 -50 16 -11 23 -12 26 -2 3 7 6 5 6 -5 1 -23 -4 -23 -85 8 -38 15 -77 26
-86 26 -10 0 -18 3 -18 8 0 4 -16 11 -35 14 -19 4 -35 11 -35 16 0 5 -16 14
-35 21 -19 7 -35 17 -35 22 0 4 3 7 8 5 4 -2 18 -9 32 -15z m-4035 -33 c-10
-11 -21 -18 -23 -15 -3 3 3 12 14 20 27 20 30 18 9 -5z m4556 -26 c-5 -21 -9
-30 -10 -19 -1 24 10 67 15 62 3 -2 0 -22 -5 -43z m-3624 -46 c-2 -13 -4 -3
-4 22 0 25 2 35 4 23 2 -13 2 -33 0 -45z m3400 30 c-3 -7 -5 -2 -5 12 0 14 2
19 5 13 2 -7 2 -19 0 -25z m-2957 -12 c-14 -7 -36 -16 -50 -20 -14 -3 -7 3 15
13 45 22 73 27 35 7z m2174 -98 c-15 -23 -38 -56 -51 -71 -13 -16 -21 -33 -17
-38 3 -5 0 -9 -5 -9 -19 0 -12 17 23 63 19 25 42 60 51 77 9 18 19 30 21 27 3
-3 -7 -25 -22 -49z m-2314 32 c-8 -5 -19 -10 -25 -10 -5 0 -3 5 5 10 8 5 20
10 25 10 6 0 3 -5 -5 -10z m3320 -47 c0 -24 -3 -33 -9 -25 -7 12 -4 62 5 62 2
0 4 -17 4 -37z m-2083 -5 c-3 -8 -6 -5 -6 6 -1 11 2 17 5 13 3 -3 4 -12 1 -19z
m1376 7 c-3 -9 -8 -14 -10 -11 -3 3 -2 9 2 15 9 16 15 13 8 -4z m32 -5 c3 -5
1 -10 -4 -10 -6 0 -11 5 -11 10 0 6 2 10 4 10 3 0 8 -4 11 -10z m71 -5 c16 -8
22 -15 13 -15 -8 0 -24 7 -35 15 -25 19 -14 19 22 0z m-780 -19 c8 -8 11 -17
6 -20 -4 -2 -13 4 -20 15 -14 22 -7 25 14 5z m915 -20 c52 -19 97 -34 102 -35
10 -1 44 -20 35 -21 -15 0 -223 71 -232 80 -15 15 -6 13 95 -24z m1915 -186
c30 -35 54 -71 54 -79 0 -8 -13 4 -28 25 -52 71 -184 205 -216 218 -21 9 -32
20 -32 33 0 16 19 4 84 -56 47 -42 109 -105 138 -141z m-3809 188 c-3 -8 -6
-5 -6 6 -1 11 2 17 5 13 3 -3 4 -12 1 -19z m1662 -4 c-13 -14 -38 -53 -55 -87
-17 -34 -38 -61 -45 -60 -47 5 -320 81 -312 86 6 4 48 -4 93 -18 45 -13 98
-25 118 -27 21 -1 39 -5 42 -9 3 -4 21 -9 40 -11 32 -3 35 -1 32 22 -1 17 1
21 7 11 10 -15 15 -8 25 32 7 30 53 87 69 87 6 0 0 -12 -14 -26z m-2344 -4
c-16 -11 -38 -19 -47 -16 -10 2 -18 0 -18 -5 0 -5 -5 -9 -11 -9 -8 0 -8 5 1
15 7 8 23 15 36 15 12 0 26 5 29 10 3 6 14 10 23 10 12 0 8 -6 -13 -20z m3038
-20 c-3 -12 -8 -19 -11 -16 -5 6 5 36 12 36 2 0 2 -9 -1 -20z m-2325 -22 c20
3 43 9 51 16 12 9 13 8 6 -3 -6 -11 -3 -13 13 -9 12 4 22 2 22 -3 0 -9 -52
-14 -97 -10 -13 1 -23 -3 -23 -9 0 -5 -4 -10 -10 -10 -5 0 -9 15 -9 33 1 19 3
24 6 12 3 -18 10 -20 41 -17z m262 16 c0 -2 -21 -3 -47 -3 -41 1 -44 2 -18 8
28 7 65 4 65 -5z m-1070 -3 c0 -10 -24 -21 -43 -21 -7 0 -3 7 7 15 22 17 36
19 36 6z m958 -8 c-10 -2 -26 -2 -35 0 -10 3 -2 5 17 5 19 0 27 -2 18 -5z
m1919 -40 c-2 -2 -16 3 -30 10 -15 8 -24 17 -21 20 4 3 17 -1 30 -10 14 -9 23
-17 21 -20z m-750 21 c-3 -3 -12 -4 -19 -1 -8 3 -5 6 6 6 11 1 17 -2 13 -5z
m1000 -116 c-2 -24 -4 -5 -4 42 0 47 2 66 4 43 2 -24 2 -62 0 -85z m1004 105
c13 -16 12 -17 -3 -4 -10 7 -18 15 -18 17 0 8 8 3 21 -13z m-1924 -9 c-3 -3
-12 -4 -19 -1 -8 3 -5 6 6 6 11 1 17 -2 13 -5z m-4002 -14 c3 -5 1 -10 -4 -10
-6 0 -11 5 -11 10 0 6 2 10 4 10 3 0 8 -4 11 -10z m2045 -10 c6 -11 8 -20 6
-20 -3 0 -10 9 -16 20 -6 11 -8 20 -6 20 3 0 10 -9 16 -20z m280 11 c0 -5 -11
-12 -24 -15 -13 -3 -31 -9 -40 -12 -9 -3 -16 -2 -16 3 0 6 15 15 33 21 42 13
47 14 47 3z m1794 -12 c-6 -11 -24 -2 -24 11 0 5 7 7 15 4 8 -4 12 -10 9 -15z
m564 -49 c-2 -33 -6 -60 -10 -60 -5 0 -8 -19 -8 -43 0 -42 1 -43 55 -71 30
-15 60 -24 66 -20 7 4 9 3 5 -4 -7 -11 30 -28 52 -23 7 1 11 -4 10 -10 -2 -7
5 -15 16 -17 11 -2 16 0 12 7 -4 6 -2 11 5 11 7 0 9 10 7 25 -3 14 -2 25 3 25
4 0 10 10 12 23 2 12 2 0 -1 -28 -2 -27 -4 -60 -3 -73 l1 -22 -58 28 c-31 16
-88 44 -127 62 -38 18 -71 33 -72 34 -2 2 13 128 23 184 8 51 14 37 12 -28z
m-2448 29 c0 -12 -40 -17 -41 -6 0 9 -2 9 -5 0 -6 -14 -73 -38 -81 -29 -4 3 1
6 11 6 9 0 14 4 11 10 -3 5 0 7 8 4 8 -3 21 1 28 9 13 14 69 18 69 6z m-2144
-102 c65 -92 130 -176 153 -194 12 -11 13 -13 0 -12 -8 0 -32 23 -55 52 -54
69 -177 250 -165 243 6 -4 36 -44 67 -89z m5624 30 c0 -2 -10 -12 -22 -23
l-23 -19 19 23 c18 21 26 27 26 19z m-4123 -64 c-3 -10 -5 -4 -5 12 0 17 2 24
5 18 2 -7 2 -21 0 -30z m3238 27 c3 -5 1 -10 -4 -10 -6 0 -11 5 -11 10 0 6 2
10 4 10 3 0 8 -4 11 -10z m91 -14 c0 -14 -5 -21 -9 -17 -4 4 -5 15 -1 24 9 24
12 21 10 -7z m-4436 -19 c0 -2 -10 -12 -22 -23 l-23 -19 19 23 c18 21 26 27
26 19z m5160 -11 c0 -2 -8 -10 -17 -17 -16 -13 -17 -12 -4 4 13 16 21 21 21
13z m535 -16 c10 -11 16 -20 13 -20 -3 0 -13 9 -23 20 -10 11 -16 20 -13 20 3
0 13 -9 23 -20z m-4566 -46 c1 -6 -18 -17 -41 -24 -24 -8 -62 -25 -86 -38 -24
-13 -46 -22 -49 -18 -4 3 -1 6 6 6 7 0 9 5 5 12 -4 6 -3 8 4 4 6 -3 36 7 67
24 30 16 61 30 68 30 9 0 13 11 11 33 -3 29 -3 30 5 7 5 -14 9 -30 10 -36z
m4331 -15 c44 -39 80 -74 80 -78 0 -8 -90 -122 -143 -180 -26 -29 -44 -41 -55
-36 -9 3 -51 31 -94 62 -52 37 -75 60 -70 69 23 41 179 234 189 234 7 0 48
-32 93 -71z m-5510 47 c0 -2 -8 -10 -17 -17 -16 -13 -17 -12 -4 4 13 16 21 21
21 13z m900 -65 c0 -45 -6 -37 -13 18 -4 29 -2 40 4 30 5 -7 9 -29 9 -48z
m-950 24 c-7 -8 -18 -15 -24 -15 -6 0 -2 7 8 15 25 19 32 19 16 0z m-70 -51
c-8 -8 -23 -20 -34 -25 -13 -6 -10 0 9 15 34 29 43 33 25 10z m5240 12 c0 -2
-8 -10 -17 -17 -16 -13 -17 -12 -4 4 13 16 21 21 21 13z m-370 -34 c-20 -7
-40 -35 -33 -46 4 -5 1 -6 -5 -2 -7 4 -12 2 -12 -3 0 -6 -5 -11 -11 -11 -6 0
4 18 21 40 18 23 37 37 43 33 7 -4 6 -8 -3 -11z m-3853 -14 c-3 -8 -6 -5 -6 6
-1 11 2 17 5 13 3 -3 4 -12 1 -19z m89 10 c4 -6 3 -8 -3 -5 -6 4 -17 0 -24 -9
-17 -20 -65 -45 -73 -37 -10 11 -7 24 7 22 16 -3 63 17 72 30 8 14 12 14 21
-1z m4084 -28 c-6 -11 -13 -20 -16 -20 -2 0 0 9 6 20 6 11 13 20 16 20 2 0 0
-9 -6 -20z m690 -5 c0 -7 -209 -243 -223 -252 -12 -7 -1 6 143 171 74 85 80
91 80 81z m-1100 -50 c-7 -9 -11 -17 -9 -18 2 -2 18 -11 34 -22 17 -10 51 -36
77 -57 28 -23 52 -36 59 -32 7 4 9 3 6 -3 -8 -12 20 -39 30 -30 5 6 78 -47
116 -85 10 -10 22 -16 28 -13 5 4 9 -1 9 -10 0 -9 9 -19 20 -22 11 -3 20 -10
20 -15 0 -5 5 -6 10 -3 6 3 10 1 10 -4 0 -6 10 -11 23 -12 12 0 16 -3 9 -6
-10 -4 -10 -8 -1 -19 7 -8 15 -11 18 -7 3 4 33 -19 66 -51 l60 -60 -57 43
c-32 24 -58 48 -58 54 0 6 -3 8 -6 4 -3 -3 -42 22 -86 56 -44 34 -90 69 -104
78 -13 8 -32 25 -42 37 -11 12 -21 19 -24 16 -3 -3 -54 32 -114 77 -60 45
-115 84 -123 87 -9 3 -7 9 10 18 31 17 34 17 19 -1z m50 -25 c0 -5 -2 -10 -4
-10 -3 0 -8 5 -11 10 -3 6 -1 10 4 10 6 0 11 -4 11 -10z m390 -52 c32 -24 88
-63 124 -88 38 -26 60 -48 53 -52 -13 -8 -52 17 -52 34 0 6 -6 13 -14 16 -10
3 -11 0 -5 -9 6 -11 3 -11 -15 1 -12 8 -23 20 -23 25 0 6 -29 29 -64 52 -57
39 -84 63 -70 63 3 0 33 -19 66 -42z m-346 16 c3 -8 2 -12 -4 -9 -6 3 -10 10
-10 16 0 14 7 11 14 -7z m-4024 -14 c-14 -11 -29 -20 -35 -20 -5 0 4 9 20 20
38 25 48 25 15 0z m-100 -64 c0 -2 -15 -13 -32 -24 -24 -16 -35 -18 -40 -9
-11 17 -10 27 3 27 5 0 7 -4 4 -10 -9 -15 17 -11 39 5 21 16 26 18 26 11z
m-544 -108 c43 -51 84 -99 91 -106 22 -22 15 -26 -9 -6 -30 26 -34 29 -106
123 -35 44 -61 81 -58 81 2 0 40 -42 82 -92z m5432 19 c-42 -40 -74 -57 -107
-57 -21 0 -41 4 -46 9 -6 5 -28 18 -50 30 -22 12 -32 21 -23 21 9 0 36 -11 59
-25 57 -32 78 -31 125 4 40 30 66 41 42 18z m-6528 -53 c0 -2 -11 2 -25 8 -14
6 -25 15 -25 20 0 5 11 1 25 -8 14 -9 25 -18 25 -20z m70 -32 c25 -12 56 -32
70 -43 14 -11 -6 -4 -45 17 -101 54 -120 74 -25 26z m1161 -99 l24 -27 -32 23
c-33 23 -40 31 -25 31 5 0 19 -12 33 -27z m5020 -20 c13 -16 12 -17 -3 -4 -10
7 -18 15 -18 17 0 8 8 3 21 -13z m104 -93 c4 0 1 8 -6 17 -8 9 2 5 21 -9 20
-15 53 -28 75 -31 l40 -4 -42 -1 c-23 -1 -54 3 -70 9 -35 13 -93 51 -93 62 0
4 15 -3 33 -17 19 -15 37 -26 42 -26z m261 25 c-11 -8 -25 -15 -30 -15 -6 1 0
7 14 15 32 19 40 18 16 0z m-5668 -30 c-3 -3 -9 2 -12 12 -6 14 -5 15 5 6 7
-7 10 -15 7 -18z m5606 -5 c-22 -9 -29 -6 -20 9 4 6 14 7 23 4 15 -6 14 -7 -3
-13z m-5515 -124 c-3 -3 -11 5 -18 17 -13 21 -12 21 5 5 10 -10 16 -20 13 -22z
m-304 -44 c87 -55 115 -75 111 -80 -3 -2 -24 9 -48 26 -24 16 -63 41 -88 55
-25 14 -54 33 -65 42 -17 14 -16 14 15 -1 19 -9 53 -28 75 -42z m-1054 5 c-10
-9 -11 -8 -5 6 3 10 9 15 12 12 3 -3 0 -11 -7 -18z m1109 -207 c-29 -49 -55
-90 -57 -90 -2 0 14 33 37 73 23 39 47 85 53 100 6 15 13 23 15 18 2 -6 -20
-51 -48 -101z m-66 -112 c-4 -7 -17 -26 -29 -43 -12 -16 -57 -94 -99 -172 -43
-79 -79 -143 -82 -143 -6 0 9 33 46 100 20 36 56 101 79 144 24 44 49 86 57
93 8 8 14 19 14 24 0 5 5 9 11 9 5 0 7 -6 3 -12z m-681 -90 c31 -17 56 -33 53
-35 -4 -4 -33 11 -148 79 -38 21 -68 41 -68 44 0 2 24 -9 53 -26 28 -17 78
-45 110 -62z m232 -116 c-6 -6 -74 18 -80 28 -3 5 14 2 39 -7 25 -10 43 -19
41 -21z m40 8 c-3 -5 -12 -10 -18 -10 -7 0 -6 4 3 10 19 12 23 12 15 0z m180
-199 c-8 -17 -19 -33 -25 -36 -5 -3 -1 10 11 29 25 43 36 48 14 7z"/>
<path d="M7570 7826 c0 -2 7 -7 16 -10 8 -3 12 -2 9 4 -6 10 -25 14 -25 6z"/>
<path d="M4973 8240 c-34 -5 -110 -22 -170 -38 -59 -16 -146 -35 -193 -42
-200 -27 -455 -93 -675 -173 -203 -74 -501 -226 -688 -350 -389 -259 -618
-491 -889 -900 -85 -128 -233 -420 -292 -574 -79 -207 -144 -462 -175 -683
-83 -589 -23 -1082 198 -1633 114 -285 311 -631 449 -789 85 -97 108 -132 132
-198 45 -126 144 -297 195 -340 8 -7 15 -18 15 -24 0 -6 -51 -29 -112 -50 -62
-21 -135 -47 -162 -57 l-48 -20 6 108 c4 60 11 160 17 223 10 104 9 116 -6
125 -47 28 -263 204 -377 307 -79 72 -119 100 -88 63 21 -26 17 -135 -8 -186
-42 -86 -606 -758 -686 -818 -25 -19 -46 -38 -46 -42 0 -3 75 -71 168 -150 92
-78 195 -169 228 -202 l62 -59 16 50 c10 28 39 87 66 131 53 87 156 231 166
231 3 0 3 -12 -1 -27 -7 -29 -50 -333 -61 -435 -4 -32 -4 -58 0 -58 4 0 23 9
44 19 38 19 234 95 355 137 l68 23 -7 -22 c-18 -61 -128 -233 -191 -298 l-44
-46 33 -25 c18 -14 98 -69 178 -123 80 -54 171 -118 203 -142 54 -42 77 -47
77 -20 0 24 69 154 151 284 400 631 419 655 564 687 l50 12 -80 39 c-76 36
-78 39 -52 46 134 36 257 16 567 -95 267 -96 441 -143 665 -180 263 -44 593
-64 785 -47 373 33 662 104 1061 260 228 88 286 101 459 98 116 -1 155 2 196
16 68 23 122 52 151 78 30 29 36 21 24 -32 -13 -59 1 -154 33 -224 48 -106
129 -181 221 -206 33 -9 35 -12 19 -23 -16 -12 -14 -18 29 -74 145 -188 321
-251 479 -171 90 45 243 183 424 380 189 206 240 288 251 405 12 133 -73 281
-199 345 -49 25 -69 29 -138 29 -44 0 -80 3 -80 8 0 4 16 17 35 30 20 12 35
30 35 41 0 23 -135 151 -199 189 -41 24 -56 27 -136 27 -78 0 -97 -4 -140 -27
-68 -35 -135 -87 -250 -191 -53 -49 -98 -87 -100 -85 -2 2 5 39 15 84 16 77
21 86 127 225 262 345 468 774 578 1202 133 518 136 1049 10 1547 -62 245
-119 399 -237 635 -198 395 -468 728 -829 1022 -230 187 -552 372 -859 493
-200 80 -658 200 -759 200 -21 0 -64 9 -97 21 -162 56 -380 80 -531 59z m346
-86 c116 -22 194 -51 187 -71 -3 -8 -6 -22 -7 -31 0 -12 -3 -11 -9 5 -10 24
-117 63 -175 63 -19 0 -40 7 -49 15 -11 12 -41 15 -130 15 -71 0 -116 4 -116
10 0 16 204 12 299 -6z m-326 -1 c-7 -2 -19 -2 -25 0 -7 3 -2 5 12 5 14 0 19
-2 13 -5z m-70 -10 c-24 -3 -30 -8 -26 -20 5 -13 0 -15 -25 -11 -18 2 -32 1
-32 -4 0 -4 -11 -8 -25 -8 -14 0 -34 -9 -44 -19 -16 -16 -18 -26 -10 -67 5
-26 7 -49 5 -52 -6 -5 -17 56 -19 100 -2 32 -1 34 73 60 41 15 89 26 105 26
l30 -1 -32 -4z m424 -135 c-3 -8 -6 -5 -6 6 -1 11 2 17 5 13 3 -3 4 -12 1 -19z
m127 -114 c-18 -138 -56 -341 -76 -399 -8 -24 -25 -48 -46 -61 -46 -31 -157
-48 -279 -41 -134 6 -179 27 -209 94 -21 48 -78 315 -72 334 2 6 16 -51 31
-126 34 -168 64 -245 103 -264 40 -20 214 -26 304 -11 61 10 78 18 103 44 17
18 27 24 24 14 -11 -32 4 -19 18 15 20 49 64 244 79 357 13 88 28 171 32 167
2 -2 -3 -57 -12 -123z m-889 96 c-3 -5 -12 -10 -18 -10 -7 0 -6 4 3 10 19 12
23 12 15 0z m1198 -69 c26 -20 59 -55 73 -78 27 -47 44 -133 25 -133 -6 0 -11
10 -11 23 0 12 -6 31 -13 42 -8 11 -17 35 -21 54 -5 27 -36 65 -55 66 -1 0
-21 17 -43 37 -23 21 -49 40 -59 43 -11 4 -19 10 -19 15 0 12 60 -22 123 -69z
m-233 -2 c-5 -17 -7 -35 -5 -40 3 -4 -1 -40 -10 -81 -8 -40 -24 -122 -35 -183
-42 -217 -60 -249 -168 -302 -55 -27 -63 -28 -212 -28 -112 0 -161 4 -175 13
l-20 14 20 -7 c40 -13 153 -16 247 -7 158 15 232 67 262 185 12 47 53 284 83
477 5 31 6 33 14 13 4 -12 4 -36 -1 -54z m487 65 c-3 -3 -12 -4 -19 -1 -8 3
-5 6 6 6 11 1 17 -2 13 -5z m-1483 -13 c3 -5 -2 -15 -12 -22 -15 -13 -16 -12
-3 4 9 11 10 17 2 17 -6 0 -16 -9 -23 -20 -7 -11 -18 -20 -25 -20 -7 0 -12 -3
-11 -7 3 -12 -35 -83 -44 -83 -4 0 -8 -24 -9 -52 -1 -84 -17 -105 -17 -24 -1
92 19 137 76 180 51 38 58 40 66 27z m1661 -38 c55 -19 148 -58 208 -86 98
-47 107 -53 107 -79 0 -30 -4 -32 -35 -17 -19 9 -18 9 3 5 26 -5 30 12 5 21
-9 4 -24 14 -33 23 -26 26 -141 78 -290 132 -74 26 -119 45 -100 42 19 -4 80
-22 135 -41z m-544 -6 c-2 -8 24 -37 33 -37 3 0 2 7 -1 17 -4 10 -2 14 4 10 6
-4 16 -27 23 -52 7 -25 16 -45 19 -45 12 0 12 -71 0 -107 -9 -28 -13 -32 -25
-22 -8 7 -17 9 -21 5 -3 -3 -1 -6 6 -6 7 0 17 -13 22 -30 12 -34 25 -39 32
-12 3 10 5 6 6 -11 0 -16 -3 -26 -8 -22 -5 3 -13 0 -17 -6 -4 -8 -3 -9 4 -5
15 9 15 5 -4 -61 -9 -30 -13 -57 -11 -60 3 -3 9 11 12 31 4 20 11 36 17 36 5
0 7 3 5 8 -2 4 2 25 9 47 17 54 17 13 0 -50 -17 -64 -87 -239 -97 -243 -4 -2
-22 -25 -39 -53 -18 -27 -37 -49 -42 -49 -6 0 -5 7 2 15 19 22 5 29 -14 8 -65
-69 -102 -103 -112 -103 -6 0 -15 -7 -18 -16 -6 -15 -8 -15 -26 1 -16 14 -20
15 -21 4 0 -12 -2 -12 -6 0 -4 11 -7 11 -14 0 -4 -7 -11 -10 -15 -6 -4 4 1 16
11 26 17 20 17 20 -9 15 -21 -4 -25 -1 -23 15 2 10 9 26 16 35 16 19 1 22 -17
4 -18 -18 -13 3 9 37 10 17 23 39 28 50 5 12 16 27 25 34 30 25 57 80 80 163
28 97 62 176 68 156 5 -12 -9 -47 -23 -58 -9 -8 -17 -60 -9 -60 4 0 13 20 20
45 7 25 18 49 24 53 6 4 11 20 11 36 1 16 7 32 14 34 8 3 12 -1 9 -9 -3 -8 2
-20 9 -28 12 -11 16 -11 28 5 7 11 19 19 27 19 7 0 12 8 12 18 -1 9 2 17 8 17
5 0 6 5 2 12 -5 8 -2 9 9 5 10 -3 17 -2 17 3 0 6 -7 10 -15 10 -8 0 -15 5 -15
11 0 7 10 9 26 6 l25 -4 -30 29 c-17 17 -32 38 -32 47 -4 52 -8 64 -20 72 -8
5 -9 9 -4 9 6 0 -3 12 -20 27 l-30 25 34 -18 c19 -11 33 -23 32 -27z m-894 -9
c-3 -7 -5 -2 -5 12 0 14 2 19 5 13 2 -7 2 -19 0 -25z m640 0 c-3 -8 -6 -5 -6
6 -1 11 2 17 5 13 3 -3 4 -12 1 -19z m342 -57 c0 -24 -2 -23 -14 9 -18 46 -18
59 0 36 8 -11 15 -31 14 -45z m-972 -8 c-3 -10 -5 -2 -5 17 0 19 2 27 5 18 2
-10 2 -26 0 -35z m1033 -5 c0 -5 -9 -3 -20 4 -11 7 -20 16 -20 20 0 5 9 3 20
-4 11 -7 20 -16 20 -20z m-413 0 c-3 -8 -6 -5 -6 6 -1 11 2 17 5 13 3 -3 4
-12 1 -19z m-23 -4 c3 -8 2 -12 -4 -9 -6 3 -10 10 -10 16 0 14 7 11 14 -7z
m-1027 -116 c-7 -95 -5 -205 7 -303 3 -22 -3 3 -14 55 -10 52 -22 127 -26 165
-7 68 -7 69 -19 40 -7 -16 -11 -46 -9 -65 3 -34 3 -34 -5 -5 -7 25 -9 19 -11
-35 -1 -56 -3 -61 -11 -35 -5 17 -7 46 -4 65 4 27 2 24 -11 -15 -10 -31 -12
-51 -6 -53 7 -2 7 -13 1 -30 -5 -15 -7 -65 -5 -112 3 -47 5 -98 5 -115 0 -16
6 -40 13 -53 10 -19 9 -25 -2 -32 -13 -8 -13 -10 1 -10 14 0 15 -8 8 -51 -6
-41 -5 -56 9 -78 16 -25 16 -26 -2 -11 -27 21 -73 123 -86 189 -6 31 -15 72
-20 91 -5 20 -7 53 -4 75 l5 40 -17 -39 c-15 -33 -16 -49 -6 -125 15 -118 34
-175 86 -253 24 -37 46 -75 48 -85 2 -11 12 -17 25 -16 11 1 31 -9 43 -22 13
-14 19 -25 14 -25 -5 0 -15 9 -22 20 -7 12 -21 19 -34 17 -16 -1 -28 8 -45 38
-13 22 -29 39 -35 37 -7 -2 -10 0 -6 3 12 13 -12 45 -33 45 -11 0 -22 7 -25
15 -4 8 -11 12 -18 8 -6 -4 -15 -8 -21 -8 -12 0 -14 -21 -4 -57 4 -16 4 -28 0
-28 -5 0 -4 -19 0 -42 5 -24 11 -68 15 -98 3 -30 7 -56 9 -58 1 -1 6 26 10 60
5 37 10 53 13 39 2 -13 7 -19 10 -14 4 6 6 -35 4 -90 -5 -155 31 -433 64 -500
14 -28 34 -61 44 -72 9 -11 26 -33 36 -50 l18 -30 -28 25 c-15 13 -36 39 -47
57 -12 18 -25 31 -29 28 -5 -3 -11 -1 -15 5 -3 5 -2 10 4 10 5 0 4 12 -5 28
-7 15 -14 35 -14 44 0 9 -9 54 -19 100 -11 46 -23 117 -26 158 -3 41 -17 130
-30 198 -31 154 -49 369 -42 487 4 72 12 109 41 185 50 129 111 235 149 262
41 29 47 37 47 74 0 27 15 54 30 54 3 0 2 -46 -3 -102z m1611 -10 c0 -35 -3
-55 -8 -48 -5 7 -6 19 -3 27 4 9 0 11 -11 7 -19 -7 -23 3 -29 74 l-4 53 27
-26 c25 -24 28 -34 28 -87z m-648 86 c0 -2 -9 -4 -21 -4 -11 0 -18 4 -14 10 5
8 35 3 35 -6z m462 -9 c3 -13 1 -22 -3 -19 -9 5 -13 44 -5 44 2 0 6 -11 8 -25z
m25 -7 c-3 -7 -5 -2 -5 12 0 14 2 19 5 13 2 -7 2 -19 0 -25z m-459 -13 c-3
-14 -1 -25 3 -25 5 0 9 9 9 21 0 12 5 19 13 16 6 -2 11 -11 9 -20 -1 -8 2 -18
7 -22 6 -3 8 -13 5 -23 -4 -13 -3 -12 7 2 8 13 8 21 2 23 -6 2 -8 16 -5 31 l6
27 6 -31 c9 -41 1 -101 -11 -83 -6 10 -9 10 -9 2 0 -6 4 -14 9 -17 5 -3 5 -24
0 -48 -5 -24 -12 -58 -15 -76 -4 -19 -12 -31 -20 -30 -7 2 -23 -13 -36 -32
-13 -19 -28 -35 -33 -35 -6 0 -15 -3 -21 -7 -6 -4 -31 -10 -55 -13 -40 -5 -41
-4 -16 6 22 9 25 14 17 25 -7 7 -9 18 -5 24 3 5 2 10 -4 10 -5 0 -11 -5 -13
-12 -5 -14 -28 -2 -28 15 0 7 4 6 10 -3 6 -9 10 -10 10 -3 0 7 -8 17 -17 22
-16 9 -16 10 5 11 12 0 22 -5 22 -11 0 -8 4 -8 14 0 8 7 12 25 11 44 -2 17 3
47 11 66 8 18 11 37 8 42 -3 5 1 9 8 9 19 0 39 75 24 91 -8 8 -2 10 27 7 28
-3 36 -1 33 9 -3 7 0 13 5 13 7 0 9 -11 7 -25z m499 -17 c-3 -8 -6 -5 -6 6 -1
11 2 17 5 13 3 -3 4 -12 1 -19z m-2243 -21 c-3 -9 -12 -13 -19 -11 -7 3 -28
-2 -47 -11 -46 -24 -22 -2 26 24 43 22 50 22 40 -2z m2185 -52 c0 -22 -3 -33
-7 -25 -10 21 -32 23 -33 3 0 -10 -3 -13 -5 -7 -3 6 2 23 10 38 12 24 15 26
20 9 3 -10 3 0 1 22 -3 29 -2 35 5 20 5 -11 9 -38 9 -60z m891 44 c33 -17 60
-35 60 -41 0 -5 -19 1 -42 15 -24 13 -55 27 -70 31 -16 3 -28 11 -28 16 0 16
18 12 80 -21z m-823 -11 c-3 -8 -6 -5 -6 6 -1 11 2 17 5 13 3 -3 4 -12 1 -19z
m-37 -113 c-4 -5 -10 -24 -13 -42 -5 -26 -3 -31 8 -26 9 3 15 -1 16 -8 0 -19
18 26 24 64 3 16 9 35 12 40 3 6 2 8 -3 4 -5 -3 -14 5 -20 18 -9 19 -9 25 4
30 9 3 13 3 9 -1 -11 -12 13 -33 31 -27 11 3 13 2 5 -4 -6 -4 -14 -37 -17 -73
-8 -93 -38 -260 -47 -260 -3 0 -12 7 -19 16 -8 8 -23 20 -34 26 -18 10 -19 9
-9 -3 7 -9 8 -20 4 -28 -20 -32 -20 30 0 120 27 124 39 195 40 244 2 33 3 29
9 -20 4 -33 4 -64 0 -70z m575 115 c3 -6 -1 -7 -9 -4 -18 7 -21 14 -7 14 6 0
13 -4 16 -10z m-316 -177 c11 -34 30 -84 42 -110 19 -41 23 -67 25 -178 1 -71
0 -113 -3 -92 -2 20 -8 37 -13 37 -12 0 -20 -28 -14 -45 4 -8 1 -15 -5 -15 -6
0 -10 -4 -8 -8 3 -13 -58 -87 -143 -173 -55 -56 -102 -91 -180 -134 -58 -33
-107 -62 -110 -65 -6 -7 -102 -41 -180 -63 -97 -28 -295 -57 -376 -55 l-79 1
105 8 c373 26 747 195 892 404 23 33 46 63 50 66 5 3 10 14 12 25 3 10 12 46
20 79 20 76 20 105 -1 135 -16 24 -16 24 0 11 12 -9 17 -10 17 -2 0 6 -7 14
-15 17 -10 4 -13 13 -10 24 3 10 2 21 -4 24 -11 7 -22 -53 -22 -117 1 -34 -2
-46 -10 -41 -7 4 -9 3 -6 -3 7 -12 -14 -73 -25 -73 -4 0 -4 10 1 23 4 12 7 27
5 32 -2 6 -7 45 -12 87 -6 61 -5 75 4 67 7 -6 11 -26 9 -47 -3 -31 -2 -34 8
-17 13 24 17 55 6 55 -9 0 -20 27 -25 64 -2 15 -9 34 -15 42 -8 10 -8 14 -1
14 6 0 19 -12 27 -27 9 -16 13 -19 10 -8 -4 11 -8 25 -9 30 -1 6 -4 15 -7 20
-4 6 -5 19 -3 30 1 10 -1 24 -6 30 -7 9 -40 111 -40 124 1 19 73 -124 89 -176z
m232 149 c-7 -2 -18 1 -23 6 -8 8 -4 9 13 5 13 -4 18 -8 10 -11z m-2815 -14
c4 -7 3 -8 -4 -4 -7 4 -12 3 -12 -1 0 -5 -15 -14 -32 -21 -30 -10 -31 -10 -13
3 11 8 25 19 30 24 13 13 22 13 31 -1z m2434 -65 c-10 -16 -11 -15 -6 7 3 14
6 34 7 45 1 13 3 11 6 -7 2 -15 -1 -35 -7 -45z m883 26 c7 -25 -11 -36 -20
-12 -3 10 -13 26 -22 36 -15 18 -14 18 11 7 14 -7 29 -21 31 -31z m-3404 -2
c-2 -1 -15 -11 -29 -22 l-25 -20 19 23 c11 12 24 22 29 22 6 0 8 -1 6 -3z
m2488 -49 c-2 -13 -4 -5 -4 17 -1 22 1 32 4 23 2 -10 2 -28 0 -40z m1221 -133
c41 -30 131 -108 202 -174 119 -111 126 -119 101 -124 -14 -3 -36 -8 -48 -12
-16 -5 -23 -3 -23 6 0 7 3 9 6 6 4 -3 16 -2 27 4 19 11 18 12 -8 29 -15 10
-22 19 -16 21 6 2 -17 27 -51 54 -33 28 -66 56 -74 63 -7 6 -17 12 -23 12 -5
0 -13 9 -16 20 -4 11 -10 18 -15 15 -5 -3 -43 28 -85 70 -42 41 -78 75 -80 75
-11 0 -112 70 -130 90 -21 24 104 -59 233 -155z m-747 116 c57 -28 97 -50 89
-50 -14 0 -211 97 -199 98 3 1 53 -21 110 -48z m-3026 20 c3 -5 0 -13 -6 -17
-7 -4 -9 -3 -5 4 3 5 0 13 -6 15 -9 4 -10 6 -1 6 6 1 14 -3 18 -8z m2490 -11
c-2 -27 -15 -38 -15 -13 0 16 8 33 15 33 1 0 1 -9 0 -20z m85 -162 c-29 -160
-50 -222 -90 -276 -19 -26 -42 -60 -50 -76 -23 -44 -150 -158 -211 -188 -30
-15 -88 -36 -129 -47 -41 -11 -84 -23 -95 -27 -15 -5 -17 -4 -9 5 6 6 48 21
94 32 148 35 246 108 349 259 66 96 112 189 108 218 -1 9 9 76 23 147 16 84
26 118 28 98 2 -18 -6 -83 -18 -145z m77 120 c-2 -13 -4 -5 -4 17 -1 22 1 32
4 23 2 -10 2 -28 0 -40z m809 -4 c20 8 17 -7 -4 -20 -16 -10 -18 -8 -19 20 -1
17 1 23 4 13 3 -11 11 -16 19 -13z m-238 -51 c82 -45 157 -94 197 -126 24 -20
26 -24 10 -23 -25 2 -76 36 -70 46 3 4 -12 18 -33 31 -97 59 -139 77 -92 38
30 -24 -3 -10 -35 15 -19 15 -19 16 -1 9 14 -5 17 -3 12 6 -5 7 -17 11 -27 8
-10 -3 -17 0 -16 7 1 6 -6 10 -15 10 -10 -1 -15 2 -12 7 8 13 10 12 82 -28z
m-3553 -130 c-27 -25 -48 -51 -47 -57 2 -6 0 -8 -3 -4 -10 10 -47 -11 -40 -21
2 -5 -2 -14 -9 -20 -12 -10 -14 -9 -12 5 2 15 141 142 156 143 3 0 -17 -21
-45 -46z m1248 7 c3 -11 1 -20 -4 -20 -5 0 -9 9 -9 20 0 11 2 20 4 20 2 0 6
-9 9 -20z m2832 -1 c18 -8 18 -8 -5 -7 -14 1 -31 -1 -37 -5 -7 -5 -13 -4 -13
2 0 8 17 19 30 20 3 0 14 -5 25 -10z m-2708 -41 c-3 -7 -5 -2 -5 12 0 14 2 19
5 13 2 -7 2 -19 0 -25z m1357 -20 c-4 -24 -13 -50 -20 -59 -17 -19 -19 -53 -2
-43 7 5 8 3 3 -5 -6 -10 -11 -10 -23 2 -13 14 -13 20 7 61 11 25 21 52 21 59
0 13 9 27 17 27 2 0 0 -19 -3 -42z m1201 -77 c119 -96 249 -217 307 -286 39
-46 28 -37 -48 38 -55 53 -103 97 -108 97 -5 0 -2 -8 5 -17 8 -10 -21 14 -63
52 -43 38 -78 76 -78 84 0 8 -3 11 -7 8 -3 -4 -18 6 -33 21 -15 15 -33 28 -40
30 -23 5 -80 54 -80 69 0 17 26 0 145 -96z m130 48 l20 -23 -32 23 c-38 26
-56 49 -27 33 11 -6 28 -20 39 -33z m-3021 -21 c-12 -40 -15 -81 -10 -177 5
-128 4 -130 -15 -29 -8 41 -16 58 -30 61 -25 7 -33 -21 -23 -86 4 -29 6 -74 6
-102 -1 -27 8 -100 19 -162 17 -101 25 -203 15 -192 -2 2 -6 31 -10 64 -3 33
-12 88 -21 123 -8 35 -17 100 -20 145 -3 45 -8 103 -10 128 -4 37 0 57 21 98
15 28 30 51 34 51 4 0 12 19 19 42 18 58 30 88 35 88 3 0 -2 -23 -10 -52z
m1717 45 c0 -5 2 -16 4 -26 3 -15 1 -16 -11 -6 -16 13 -19 39 -4 39 6 0 10 -3
11 -7z m-2411 -17 c-8 -7 -44 -37 -80 -65 -36 -29 -110 -97 -165 -150 -117
-114 -159 -144 -65 -46 60 62 307 275 319 275 3 0 -1 -6 -9 -14z m1980 -6 c6
-11 8 -20 6 -20 -3 0 -10 9 -16 20 -6 11 -8 20 -6 20 3 0 10 -9 16 -20z m1874
-5 c3 -8 1 -15 -4 -15 -6 0 -10 7 -10 15 0 8 2 15 4 15 2 0 6 -7 10 -15z
m-985 -120 c-1 -86 -26 -96 -33 -13 -2 24 -1 31 1 16 2 -16 8 -28 13 -28 11 0
3 52 -16 99 -22 53 -15 60 11 11 14 -27 24 -61 24 -85z m-204 105 c3 -5 1 -10
-4 -10 -6 0 -11 5 -11 10 0 6 2 10 4 10 3 0 8 -4 11 -10z m-3145 -3 c0 -2 -12
-14 -27 -28 l-28 -24 24 28 c23 25 31 32 31 24z m3197 -29 c-3 -8 -6 -5 -6 6
-1 11 2 17 5 13 3 -3 4 -12 1 -19z m-407 -13 c0 -8 13 -23 30 -34 16 -10 27
-21 23 -24 -3 -4 -13 -1 -21 6 -13 10 -14 9 -3 -12 10 -18 10 -25 0 -35 -9 -8
-11 -7 -6 7 10 26 -20 33 -46 11 l-22 -19 20 23 c19 22 19 25 3 36 -10 7 -15
16 -11 19 3 4 13 1 22 -6 14 -11 14 -10 2 6 -17 21 -14 21 -37 -4 -10 -11 -14
-20 -9 -19 22 5 36 -1 29 -11 -5 -8 -9 -8 -14 1 -4 6 -10 12 -14 12 -13 -1
-94 -90 -111 -122 -9 -18 -19 -30 -21 -27 -8 8 74 147 87 147 5 0 23 14 41 30
34 33 58 39 58 15z m-332 -30 c-3 -3 -9 2 -12 12 -6 14 -5 15 5 6 7 -7 10 -15
7 -18z m252 15 c-20 -13 -33 -13 -25 0 3 6 14 10 23 10 15 0 15 -2 2 -10z
m1760 -11 c0 -6 -4 -7 -10 -4 -5 3 -10 11 -10 16 0 6 5 7 10 4 6 -3 10 -11 10
-16z m-1300 -24 c0 -5 -5 -3 -10 5 -5 8 -10 20 -10 25 0 6 5 3 10 -5 5 -8 10
-19 10 -25z m-3291 -53 c-19 -20 -38 -41 -43 -47 -5 -6 -6 -4 -1 5 15 27 70
89 74 84 3 -2 -11 -21 -30 -42z m4392 31 c13 -16 12 -17 -3 -4 -10 7 -18 15
-18 17 0 8 8 3 21 -13z m-872 -127 c0 -61 -4 -133 -9 -161 -6 -37 -8 -11 -7
93 0 106 -3 146 -12 152 -8 5 -11 16 -6 29 5 18 9 20 21 10 11 -9 14 -38 13
-123z m1237 67 c-3 -7 1 -10 8 -7 8 3 22 -9 34 -29 12 -18 30 -42 42 -52 11
-10 20 -26 20 -35 0 -10 11 -25 25 -34 14 -9 23 -21 20 -27 -4 -5 -1 -8 5 -7
12 3 59 -60 165 -217 57 -86 81 -135 65 -135 -6 0 -10 -6 -10 -14 0 -20 -17
-29 -26 -15 -5 8 -3 9 6 4 10 -6 12 -4 7 8 -3 9 -1 17 5 19 7 3 8 10 4 17 -7
11 -10 11 -17 0 -8 -12 -11 -11 -19 1 -5 8 -8 21 -5 29 6 15 -41 102 -53 99
-13 -2 -42 14 -42 24 0 6 6 5 15 -2 8 -7 15 -9 15 -4 -1 14 -26 44 -36 44 -6
0 -11 9 -12 20 -4 45 -6 50 -16 47 -17 -7 -45 23 -39 41 5 11 2 14 -10 9 -12
-5 -17 -1 -17 14 0 11 -13 33 -30 49 -16 16 -30 34 -30 40 0 5 -18 28 -41 50
-22 21 -42 47 -43 57 -2 10 -9 18 -17 18 -8 1 -13 6 -11 13 1 7 -3 12 -9 12
-5 0 -8 4 -4 10 8 13 57 -31 51 -47z m-2052 3 c-10 -20 -21 -36 -25 -36 -4 0
2 18 13 41 10 22 22 39 24 36 3 -2 -3 -21 -12 -41z m703 22 c-3 -8 -6 -5 -6 6
-1 11 2 17 5 13 3 -3 4 -12 1 -19z m-3267 -21 c13 -5 13 -6 -1 -6 -8 -1 -24 6
-35 15 -19 15 -19 15 1 6 11 -5 27 -12 35 -15z m4435 3 c16 -17 16 -20 3 -15
-9 4 -19 13 -22 21 -7 19 -2 18 19 -6z m90 4 c-36 -28 -61 -36 -30 -10 17 14
35 26 40 26 6 -1 1 -8 -10 -16z m-1355 -47 c0 -7 -9 -18 -21 -25 -21 -13 -21
-13 -3 12 22 29 24 31 24 13z m-1910 -7 c10 -6 12 -12 5 -19 -7 -7 -14 -4 -23
9 -13 21 -6 25 18 10z m-7 -69 c-4 -24 -3 -25 10 -8 20 25 27 21 14 -8 -7 -14
-15 -25 -18 -25 -10 0 -22 31 -24 62 -2 20 0 24 9 15 7 -6 11 -22 9 -36z m54
27 c-3 -8 -6 -5 -6 6 -1 11 2 17 5 13 3 -3 4 -12 1 -19z m3268 2 c3 -6 -1 -7
-9 -4 -18 7 -21 14 -7 14 6 0 13 -4 16 -10z m-4861 -55 c-9 -14 -18 -25 -21
-25 -5 0 5 18 20 38 17 22 18 13 1 -13z m1594 -7 c-6 -18 -13 -35 -15 -38 -7
-8 2 44 10 58 14 22 16 13 5 -20z m3259 16 c-3 -3 -12 -4 -19 -1 -8 3 -5 6 6
6 11 1 17 -2 13 -5z m-4499 -33 c-13 -17 -27 -30 -31 -30 -5 -1 2 12 15 28 13
17 27 30 31 30 5 1 -2 -12 -15 -28z m1305 -24 c-4 -6 -10 -2 -14 9 -12 31 -9
40 6 20 8 -10 11 -24 8 -29z m3118 -19 c32 -40 34 -44 8 -18 -41 42 -63 70
-56 70 3 0 24 -24 48 -52z m-3470 -39 c-34 -97 -13 -366 36 -461 7 -16 10 -28
5 -28 -26 0 -66 165 -78 320 -5 62 -2 90 17 154 13 43 25 70 27 61 2 -9 -1
-30 -7 -46z m859 41 c8 -5 11 -10 5 -10 -5 0 -17 5 -25 10 -8 5 -10 10 -5 10
6 0 17 -5 25 -10z m-1897 -62 c-26 -33 -66 -84 -87 -112 -21 -28 -42 -53 -46
-56 -13 -10 -101 -151 -120 -193 -10 -23 -37 -74 -59 -114 -21 -39 -37 -74
-33 -77 3 -3 1 -6 -5 -6 -6 0 -25 -34 -43 -75 -18 -42 -35 -74 -37 -72 -12 13
160 352 240 472 68 101 221 295 234 295 2 0 -17 -28 -44 -62z m3457 -33 c9
-55 -4 -272 -20 -320 -6 -21 -7 -10 -2 40 9 89 9 155 0 280 -7 104 5 104 22 0z
m991 69 c51 -46 191 -248 289 -419 95 -165 201 -397 188 -411 -2 -2 -12 20
-23 49 -21 59 -93 204 -105 212 -5 3 -11 19 -15 35 -4 16 -13 34 -22 38 -8 5
-14 13 -14 18 1 5 -3 9 -8 9 -5 0 -13 4 -18 9 -5 5 -3 6 5 2 6 -4 12 -3 12 3
0 16 -81 151 -91 151 -5 0 -9 6 -9 13 0 25 -122 197 -182 255 -34 34 -54 60
-45 58 9 -1 26 -11 38 -22z m-2381 -24 c11 -8 7 -9 -15 -4 -37 8 -45 14 -19
14 10 0 26 -5 34 -10z m2541 -85 c6 -11 -2 -6 -16 10 -14 17 -31 39 -36 50 -6
11 2 7 16 -10 14 -16 31 -39 36 -50z m-2481 25 c12 -16 19 -30 16 -30 -2 0
-14 14 -26 30 -12 17 -19 30 -16 30 2 0 14 -13 26 -30z m279 27 c-2 -1 -15
-11 -29 -22 l-25 -20 19 23 c11 12 24 22 29 22 6 0 8 -1 6 -3z m2366 -47 c3
-5 1 -10 -4 -10 -6 0 -11 5 -11 10 0 6 2 10 4 10 3 0 8 -4 11 -10z m-124 -62
c8 -15 8 -18 0 -14 -6 4 -16 16 -22 28 -8 15 -8 18 0 14 6 -4 16 -16 22 -28z
m-2754 16 c-3 -3 -12 -4 -19 -1 -8 3 -5 6 6 6 11 1 17 -2 13 -5z m2888 -25 c9
-17 15 -33 13 -35 -3 -2 -12 12 -21 31 -21 43 -13 47 8 4z m-5252 -14 c-3 -9
-8 -14 -10 -11 -3 3 -2 9 2 15 9 16 15 13 8 -4z m2580 -2 c-7 -2 -21 -2 -30 0
-10 3 -4 5 12 5 17 0 24 -2 18 -5z m2827 -33 c6 -11 8 -20 6 -20 -3 0 -10 9
-16 20 -6 11 -8 20 -6 20 3 0 10 -9 16 -20z m-197 -72 c7 -24 5 -23 -29 27
l-26 40 25 -23 c14 -13 27 -33 30 -44z m-1526 -35 c-3 -10 -5 -4 -5 12 0 17 2
24 5 18 2 -7 2 -21 0 -30z m1553 -14 c0 -6 -4 -7 -10 -4 -5 3 -10 11 -10 16 0
6 5 7 10 4 6 -3 10 -11 10 -16z m204 -15 c3 -8 2 -12 -4 -9 -6 3 -10 10 -10
16 0 14 7 11 14 -7z m136 -103 c0 -11 -3 -11 -15 -1 -9 7 -13 15 -11 17 3 3
-1 11 -7 18 -12 13 -41 9 -32 -5 3 -4 -4 -10 -15 -13 -34 -9 -31 9 5 26 19 9
35 22 35 29 1 17 39 -52 40 -71z m-2270 37 c0 -15 -52 -61 -93 -81 -81 -41
-203 -87 -229 -87 -25 0 -27 2 -18 19 5 11 35 29 65 40 31 12 99 43 153 71
100 51 122 58 122 38z m2075 2 c-3 -5 -12 -10 -18 -10 -7 0 -6 4 3 10 19 12
23 12 15 0z m-1488 -22 c-3 -8 -6 -5 -6 6 -1 11 2 17 5 13 3 -3 4 -12 1 -19z
m-1678 -12 c17 -9 31 -20 31 -24 0 -7 93 -53 163 -81 15 -6 27 -15 27 -21 0
-14 -56 -12 -117 4 -39 10 -53 11 -53 3 -1 -7 -13 2 -28 20 -15 18 -45 39 -65
48 -31 13 -37 20 -37 45 0 27 3 30 24 26 13 -2 38 -11 55 -20z m2911 -46 c6
-11 8 -20 6 -20 -3 0 -10 9 -16 20 -6 11 -8 20 -6 20 3 0 10 -9 16 -20z m538
-157 c89 -224 89 -221 72 -206 -8 7 -15 18 -16 25 -5 30 -24 68 -34 68 -6 0
-8 5 -5 10 4 6 -1 24 -9 42 -9 17 -16 40 -16 50 0 11 -4 16 -10 13 -6 -4 -7 1
-3 11 4 11 3 15 -5 10 -7 -4 -19 9 -32 34 -11 22 -16 40 -11 40 5 0 15 -17 22
-37 7 -21 14 -32 17 -25 2 7 -5 27 -15 45 -25 41 -44 97 -34 97 4 0 39 -80 79
-177z m-4021 120 c-3 -10 -5 -2 -5 17 0 19 2 27 5 18 2 -10 2 -26 0 -35z
m3933 17 c6 -11 8 -20 6 -20 -3 0 -10 9 -16 20 -6 11 -8 20 -6 20 3 0 10 -9
16 -20z m-370 -4 c-6 -6 -18 -5 -32 1 -21 10 -21 10 9 9 19 -1 28 -5 23 -10z
m-1635 -46 c-8 -16 -30 -46 -47 -66 -18 -20 -33 -43 -34 -51 -3 -18 -35 -55
-42 -48 -6 6 -157 -137 -155 -146 1 -4 -10 -17 -25 -30 l-27 -24 20 24 c11 13
18 25 17 28 -2 3 50 59 115 126 65 67 134 143 153 170 38 54 47 60 25 17z
m-1781 -20 c-6 -5 -24 21 -24 34 0 6 6 1 14 -10 8 -10 12 -21 10 -24z m-15
-15 c16 -20 16 -20 -6 -1 -13 11 -23 26 -22 35 0 14 1 14 6 1 3 -8 13 -24 22
-35z m1976 -1 c-10 -19 -15 -23 -15 -11 0 20 23 62 28 49 1 -5 -4 -22 -13 -38z
m1615 11 c0 -5 -5 -3 -10 5 -5 8 -10 20 -10 25 0 6 5 3 10 -5 5 -8 10 -19 10
-25z m-5589 2 c-10 -9 -11 -8 -5 6 3 10 9 15 12 12 3 -3 0 -11 -7 -18z m3863
11 c-56 -91 -158 -212 -281 -334 -57 -55 -103 -96 -103 -91 0 6 49 60 108 121
104 106 217 234 255 290 18 26 35 37 21 14z m-1940 -78 c7 -8 16 -26 18 -40 3
-14 9 -34 13 -44 6 -13 5 -17 -3 -12 -19 12 -72 125 -72 154 1 26 1 26 16 -8
8 -19 21 -41 28 -50z m83 27 c10 4 14 0 11 -13 -2 -13 3 -19 14 -19 10 0 23
-7 30 -15 11 -12 11 -12 -4 -1 -13 9 -18 10 -18 2 0 -6 7 -14 15 -17 8 -4 13
-10 10 -15 -3 -4 8 -15 25 -24 17 -9 28 -20 25 -25 -4 -6 1 -7 11 -3 14 5 16
2 10 -18 -5 -13 -8 -32 -9 -42 -1 -16 -3 -17 -13 -3 -16 23 -19 20 -21 -19 -2
-19 2 -35 7 -35 13 0 13 -31 -1 -50 -8 -12 -9 -10 -4 9 4 13 3 21 -2 18 -5 -3
-14 7 -20 24 -6 16 -8 27 -3 24 11 -7 20 19 13 43 -4 17 -1 20 19 16 20 -5 21
-4 6 6 -10 6 -18 18 -18 27 0 9 -3 13 -7 10 -3 -4 -21 5 -40 19 -38 29 -39 28
-17 -26 14 -34 18 -38 28 -25 9 12 11 9 12 -19 0 -19 -3 -33 -8 -30 -13 8 -64
114 -72 149 -4 17 -9 39 -13 50 -4 16 -3 17 7 8 7 -6 19 -9 27 -6z m-387 -91
c0 -2 -7 -7 -16 -10 -8 -3 -12 -2 -9 4 6 10 25 14 25 6z m2320 0 c0 -2 -7 -7
-16 -10 -8 -3 -12 -2 -9 4 6 10 25 14 25 6z m366 -43 c-10 -10 -19 5 -10 18 6
11 8 11 12 0 2 -7 1 -15 -2 -18z m29 7 c3 -5 1 -10 -4 -10 -6 0 -11 5 -11 10
0 6 2 10 4 10 3 0 8 -4 11 -10z m-2350 -30 c10 -11 16 -20 13 -20 -3 0 -13 9
-23 20 -10 11 -16 20 -13 20 3 0 13 -9 23 -20z m1545 17 c0 -2 -10 -12 -22
-23 l-23 -19 19 23 c18 21 26 27 26 19z m-1370 -21 c0 -3 -4 -8 -10 -11 -5 -3
-10 -1 -10 4 0 6 5 11 10 11 6 0 10 -2 10 -4z m2194 -4 c3 -5 -1 -9 -9 -9 -8
0 -12 4 -9 9 3 4 7 8 9 8 2 0 6 -4 9 -8z m-2844 -10 c0 -5 -7 -17 -15 -28 -14
-18 -14 -17 -4 9 12 27 19 34 19 19z m60 -2 c0 -5 -5 -10 -11 -10 -5 0 -7 5
-4 10 3 6 8 10 11 10 2 0 4 -4 4 -10z m2790 -31 c0 -5 -4 -9 -10 -9 -5 0 -10
7 -10 16 0 8 5 12 10 9 6 -3 10 -10 10 -16z m-904 2 c-4 -5 -30 -28 -59 -51
l-52 -42 55 51 c55 51 66 59 56 42z m937 -38 c-6 -15 -19 -17 -28 -3 -3 6 1
10 9 10 10 0 13 6 10 18 -5 13 -4 14 4 3 6 -8 8 -20 5 -28z m1256 -38 c0 -5
-4 -3 -9 5 -5 8 -9 22 -9 30 0 16 17 -16 18 -35z m250 11 c-3 -3 -11 5 -18 17
-13 21 -12 21 5 5 10 -10 16 -20 13 -22z m89 -39 c6 -28 10 -52 8 -54 -2 -3
-7 9 -11 26 -4 17 -11 31 -16 31 -5 0 -9 10 -9 23 0 13 -6 29 -12 36 -11 11
-9 11 7 1 13 -7 25 -32 33 -63z m-2203 18 c-9 -20 -18 -35 -21 -32 -3 2 3 21
12 41 23 47 29 40 9 -9z m-2275 24 c0 -7 -10 -21 -22 -32 -17 -15 -18 -18 -6
-14 10 4 28 2 40 -3 23 -9 23 -9 -2 -10 l-25 -2 25 -8 25 -8 -27 -1 c-15 -1
-31 -8 -35 -16 -6 -10 -12 -11 -23 -4 -11 8 -12 12 -2 16 6 2 12 11 12 19 0 9
-5 12 -12 8 -7 -4 -5 2 5 13 10 11 17 24 16 29 -3 18 1 24 16 24 8 0 15 -5 15
-11z m1541 -19 l24 -21 -32 16 c-32 15 -42 25 -24 25 5 0 19 -9 32 -20z m-771
6 c0 -3 -4 -8 -10 -11 -5 -3 -10 -1 -10 4 0 6 5 11 10 11 6 0 10 -2 10 -4z
m-377 -75 c-32 -37 -64 -77 -70 -87 -11 -16 -11 -15 -3 9 18 51 95 147 118
147 8 0 -12 -30 -45 -69z m2496 50 c7 -5 9 -11 5 -14 -5 -3 -15 1 -22 9 -14
16 -5 18 17 5z m1271 -26 c0 -5 -5 -3 -10 5 -5 8 -10 20 -10 25 0 6 5 3 10 -5
5 -8 10 -19 10 -25z m-2569 8 c13 -16 12 -17 -3 -4 -10 7 -18 15 -18 17 0 8 8
3 21 -13z m-1104 -25 c-3 -7 -5 -2 -5 12 0 14 2 19 5 13 2 -7 2 -19 0 -25z
m1993 -12 c0 -5 -7 -1 -15 10 -8 10 -14 24 -14 29 0 6 6 1 14 -9 8 -11 15 -24
15 -30z m428 2 c-3 -7 -15 -14 -29 -15 -14 -1 -17 0 -6 3 9 3 17 10 17 15 0 5
5 9 11 9 6 0 9 -6 7 -12z m-2890 -29 c33 -11 35 -29 4 -29 -9 0 -30 -7 -46
-15 -36 -19 -36 -19 -36 4 0 19 24 51 39 51 5 0 22 -5 39 -11z m382 -4 c0 -8
-7 -15 -15 -15 -13 0 -20 -19 -16 -43 1 -5 -3 -6 -8 -2 -12 7 -4 34 18 57 20
21 21 21 21 3z m77 -7 c-3 -8 -6 -5 -6 6 -1 11 2 17 5 13 3 -3 4 -12 1 -19z
m1432 -22 c-7 -14 -16 -26 -22 -26 -5 0 -30 -17 -56 -38 -51 -42 -169 -112
-157 -94 4 7 37 32 74 57 37 24 89 65 117 89 27 25 51 43 53 42 1 -2 -3 -15
-9 -30z m558 -13 c-3 -10 -5 -2 -5 17 0 19 2 27 5 18 2 -10 2 -26 0 -35z
m2042 9 c0 -14 -2 -13 -9 3 -5 12 -9 14 -9 6 -1 -8 -4 -12 -7 -8 -9 9 6 28 17
22 5 -4 9 -14 8 -23z m-2889 3 c14 -8 44 -14 68 -15 29 0 41 -4 36 -11 -9 -16
-80 -4 -129 21 -25 13 -32 20 -20 20 11 -1 31 -7 45 -15z m166 0 c-11 -8 -27
-15 -35 -15 -9 1 -2 7 14 15 39 18 44 18 21 0z m-283 -34 c67 -50 111 -91 97
-91 -7 0 -5 -6 4 -15 8 -8 22 -15 32 -15 13 0 14 -3 5 -14 -7 -8 -18 -43 -26
-78 l-14 -63 6 75 c4 62 2 78 -11 89 -9 7 -13 17 -10 22 3 5 0 9 -7 9 -6 0
-27 12 -45 28 -19 15 -50 40 -69 55 l-35 29 -52 -31 c-29 -17 -69 -44 -88 -59
-20 -16 -29 -19 -20 -8 22 28 142 106 163 106 10 0 41 -17 70 -39z m1387 3 c0
-8 -4 -14 -10 -14 -5 0 -10 -13 -10 -29 0 -16 -9 -39 -20 -52 -22 -27 -27 -14
-6 16 11 16 19 47 26 103 1 10 20 -12 20 -24z m-2903 -5 c-5 -19 -3 -21 26
-15 l31 6 -22 -20 c-12 -12 -22 -25 -22 -30 0 -6 -5 -10 -11 -10 -6 0 -9 6 -7
12 3 7 -4 17 -15 23 -11 5 -22 16 -25 24 -3 8 0 11 6 7 6 -3 17 0 24 8 18 21
21 20 15 -5z m410 -11 c-3 -8 -6 -5 -6 6 -1 11 2 17 5 13 3 -3 4 -12 1 -19z
m60 -10 c-3 -8 -6 -5 -6 6 -1 11 2 17 5 13 3 -3 4 -12 1 -19z m4082 -75 c1 -7
-3 -13 -7 -13 -5 0 -9 17 -9 38 -1 32 0 34 7 12 4 -14 8 -31 9 -37z m-4486 35
c-4 -7 -8 -17 -8 -23 0 -5 -9 -14 -21 -20 -11 -6 -19 -17 -16 -25 3 -11 1 -12
-7 -4 -19 17 22 83 52 84 5 0 5 -6 0 -12z m2426 -27 c-6 -18 -13 -30 -15 -28
-2 2 1 18 7 36 6 18 13 30 15 28 2 -2 -1 -18 -7 -36z m-2406 -55 c-32 -39 -39
-42 -47 -20 -3 8 -2 13 2 10 4 -3 14 4 20 15 12 19 11 19 -10 8 -20 -10 -20
-8 6 19 25 27 30 29 43 16 13 -12 11 -19 -14 -48z m2454 32 c-3 -8 -6 -5 -6 6
-1 11 2 17 5 13 3 -3 4 -12 1 -19z m2015 -33 c3 -13 2 -22 -2 -20 -11 7 -20
45 -10 45 4 0 10 -11 12 -25z m-4402 5 c12 -8 10 -10 -8 -10 -13 0 -21 -4 -18
-8 3 -5 -6 -15 -19 -22 -13 -7 -22 -17 -19 -21 2 -4 0 -10 -6 -14 -5 -3 -10 3
-10 14 0 12 7 21 15 21 9 0 20 11 25 25 10 27 17 30 40 15z m2700 -12 c0 -6
-6 -5 -15 2 -8 7 -15 14 -15 16 0 2 7 1 15 -2 8 -4 15 -11 15 -16z m-1170 -78
l-11 -25 6 25 c2 14 5 34 6 45 2 19 2 19 6 0 2 -12 -1 -32 -7 -45z m2874 34
c3 -8 2 -12 -4 -9 -6 3 -10 10 -10 16 0 14 7 11 14 -7z m-1788 -9 c-11 -8 -22
-12 -25 -9 -6 6 19 24 34 24 6 -1 1 -7 -9 -15z m-2618 -51 c-8 -18 -14 -21
-20 -12 -4 8 -2 17 7 24 8 6 11 15 7 19 -4 5 -2 5 5 1 9 -5 10 -13 1 -32z
m2597 -2 c-6 -7 -35 18 -35 31 0 5 9 2 20 -8 11 -10 18 -20 15 -23z m-2870 18
c3 -5 -1 -10 -10 -10 -9 0 -13 5 -10 10 3 6 8 10 10 10 2 0 7 -4 10 -10z m3
-40 c18 -16 36 -30 42 -30 5 0 10 -5 10 -11 0 -5 -10 -3 -22 5 -12 9 -30 16
-40 16 -12 0 -15 5 -11 18 7 16 6 16 -11 0 -9 -10 -21 -18 -26 -18 -5 0 -21
-5 -37 -12 -15 -6 -30 -12 -33 -13 -49 -16 -59 -25 -54 -50 5 -29 -1 -31 -23
-9 -15 14 -14 18 8 39 28 28 137 95 154 95 7 0 26 -13 43 -30z m78 4 c18 -14
18 -14 -6 -3 -31 14 -36 19 -24 19 6 0 19 -7 30 -16z m224 1 c-7 -8 -17 -15
-23 -15 -6 0 -2 7 9 15 25 19 30 19 14 0z m2466 0 c-11 -8 -14 -15 -7 -15 7 0
9 -5 5 -11 -4 -8 -9 -7 -15 2 -8 13 14 40 30 39 3 0 -3 -7 -13 -15z m1931 -22
c-3 -10 -5 -4 -5 12 0 17 2 24 5 18 2 -7 2 -21 0 -30z m-1873 19 c3 -5 -1 -9
-9 -9 -8 0 -12 4 -9 9 3 4 7 8 9 8 2 0 6 -4 9 -8z m146 -22 c0 -5 -5 -10 -11
-10 -5 0 -7 5 -4 10 3 6 8 10 11 10 2 0 4 -4 4 -10z m-2963 -37 c-7 -7 -57 8
-57 18 0 4 14 3 31 -3 16 -6 28 -12 26 -15z m2352 -81 c-53 -53 -116 -124
-141 -157 -50 -66 -100 -115 -61 -60 52 73 283 325 292 318 3 -2 -38 -47 -90
-101z m397 86 l19 -23 -25 20 c-14 11 -27 21 -29 22 -2 2 0 3 6 3 5 0 18 -10
29 -22z m464 -29 c41 -17 77 -34 80 -37 13 -13 -84 11 -112 28 -40 24 -52 25
-72 4 -9 -8 -16 -11 -16 -5 0 5 8 14 18 20 14 8 11 10 -16 9 -18 -1 -35 2 -39
5 -3 4 14 7 38 7 27 0 74 -12 119 -31z m-485 11 c4 -6 2 -17 -4 -24 -6 -7 -7
-16 -3 -21 4 -4 -5 0 -20 10 -16 9 -28 22 -28 27 0 5 7 2 16 -6 21 -21 27 -20
21 4 -5 21 7 28 18 10z m330 -30 c3 -5 1 -10 -4 -10 -6 0 -11 5 -11 10 0 6 2
10 4 10 3 0 8 -4 11 -10z m-378 -30 c-1 -11 -5 -20 -9 -20 -11 0 -20 19 -13
30 11 17 24 11 22 -10z m-417 7 c0 -2 -15 -16 -32 -33 l-33 -29 29 33 c28 30
36 37 36 29z m840 -11 c35 3 35 3 -4 -6 -22 -6 -45 -15 -53 -21 -9 -8 -13 -8
-13 0 0 6 5 11 11 11 8 0 7 6 -2 17 -13 15 -12 15 6 6 11 -6 36 -9 55 -7z
m-3356 -23 c24 -19 24 -19 4 -32 -18 -11 -20 -11 -15 3 8 21 -21 35 -53 25
-23 -6 -22 -7 10 -8 48 -1 27 -18 -45 -37 -46 -12 -60 -13 -66 -3 -6 10 -13 9
-33 -4 -14 -9 -32 -17 -41 -17 -8 0 -15 -7 -15 -16 0 -8 -3 -13 -8 -10 -4 2
-25 -4 -47 -14 -22 -11 -44 -19 -48 -20 -5 0 -22 -9 -38 -21 -54 -38 -29 -10
39 44 77 62 92 71 187 109 79 31 129 32 169 1z m3434 9 c8 -6 -10 -22 -55 -52
-38 -25 -72 -49 -78 -55 -5 -6 -23 -21 -40 -35 l-30 -25 21 25 c12 14 19 31
17 38 -3 6 0 12 6 12 6 0 11 6 11 14 0 7 7 19 15 26 9 8 15 8 15 2 0 -6 -6
-13 -12 -15 -7 -3 1 -6 17 -6 20 0 26 2 17 8 -11 6 -7 13 13 29 15 12 31 20
35 17 4 -3 10 2 14 10 6 17 15 19 34 7z m49 2 c-3 -3 -12 -4 -19 -1 -8 3 -5 6
6 6 11 1 17 -2 13 -5z m-277 -8 c0 -2 -8 -10 -17 -17 -16 -13 -17 -12 -4 4 13
16 21 21 21 13z m-314 -22 c-9 -8 -16 -19 -16 -23 0 -4 -7 -8 -15 -8 -8 0 -11
5 -8 10 4 6 -3 8 -16 4 -18 -4 -20 -3 -11 8 6 7 19 11 29 8 10 -3 22 0 25 6 4
6 12 11 17 11 6 0 3 -7 -5 -16z m2071 -6 c-3 -8 -6 -5 -6 6 -1 11 2 17 5 13 3
-3 4 -12 1 -19z m-4906 -5 c13 -16 12 -17 -3 -4 -10 7 -18 15 -18 17 0 8 8 3
21 -13z m3715 7 c30 -12 235 -145 297 -193 20 -16 37 -33 37 -39 0 -5 -21 8
-47 30 -27 22 -71 51 -99 65 -29 15 -58 33 -66 41 -8 8 -31 23 -50 33 -20 10
-55 29 -78 41 -41 23 -44 23 -83 8 -22 -9 -43 -14 -45 -11 -3 3 0 5 7 5 7 0 9
5 5 12 -4 6 -3 9 2 6 5 -3 18 -2 29 3 28 11 59 11 91 -1z m-1336 -33 c0 -2
-15 -16 -32 -33 l-33 -29 29 33 c28 30 36 37 36 29z m388 -30 c-7 -12 -11 -25
-10 -29 4 -15 -16 -8 -22 7 -3 9 1 15 11 15 13 0 13 3 3 15 -11 13 -10 14 5 9
14 -6 16 -4 10 6 -5 9 -4 11 3 6 9 -5 9 -13 0 -29z m-3038 -7 c8 -5 11 -10 5
-10 -5 0 -17 5 -25 10 -8 5 -10 10 -5 10 6 0 17 -5 25 -10z m1010 0 c-8 -5
-19 -10 -25 -10 -5 0 -3 5 5 10 8 5 20 10 25 10 6 0 3 -5 -5 -10z m2760 7 c0
-2 -15 -13 -32 -26 l-33 -22 28 25 c26 24 37 31 37 23z m295 -25 c-3 -3 -11 0
-18 7 -9 10 -8 11 6 5 10 -3 15 -9 12 -12z m-1078 -24 c-3 -8 -6 -5 -6 6 -1
11 2 17 5 13 3 -3 4 -12 1 -19z m1149 -25 c-6 -6 -36 9 -36 18 0 5 9 4 20 -3
10 -7 18 -14 16 -15z m-4101 -3 c14 -6 -1 -9 -48 -9 -70 -1 -99 -11 -127 -41
-8 -9 -37 -29 -65 -44 -27 -15 -41 -20 -31 -12 16 13 17 16 4 16 -9 0 -23 -11
-32 -24 -8 -14 -24 -27 -34 -30 -10 -3 -25 -19 -35 -35 -21 -36 -22 -47 -2
-31 11 9 15 9 15 1 0 -6 -10 -16 -22 -21 -13 -5 -17 -9 -10 -9 14 -1 16 -37 2
-46 -5 -3 -10 -12 -10 -18 1 -16 40 32 40 48 0 8 12 23 26 34 19 15 24 26 19
41 -7 23 -2 26 14 7 8 -10 5 -21 -13 -46 -15 -20 -22 -41 -19 -54 3 -14 2 -18
-4 -10 -6 8 -20 -2 -46 -34 -43 -53 -49 -93 -15 -93 12 0 19 -3 15 -6 -3 -3
-9 -4 -13 -2 -4 2 -13 -13 -20 -32 l-13 -35 6 40 c7 47 -5 42 -16 -7 -5 -18
-11 -44 -15 -58 -7 -24 -6 -24 8 -6 27 33 18 -1 -10 -41 -15 -21 -23 -29 -19
-18 4 11 8 29 7 40 0 11 4 43 9 71 6 33 6 60 0 77 -7 17 -7 28 -1 32 6 4 10
21 9 38 l-1 32 -9 -32 c-5 -18 -13 -33 -18 -33 -4 0 -6 -12 -4 -27 4 -22 2
-25 -6 -13 -9 12 -11 9 -11 -16 0 -36 -54 -400 -69 -464 -13 -58 -14 -110 -1
-110 6 0 10 6 10 13 1 14 30 48 81 92 26 23 29 25 14 6 -11 -14 -35 -40 -52
-58 -42 -43 -50 -77 -31 -130 9 -24 14 -43 12 -43 -8 0 -34 61 -34 80 0 11 -6
31 -14 43 -26 41 -28 102 -6 267 37 286 111 462 258 608 57 57 89 82 99 78 9
-4 26 0 38 8 37 24 149 34 190 16z m-200 -10 c-3 -5 -11 -10 -16 -10 -6 0 -7
5 -4 10 3 6 11 10 16 10 6 0 7 -4 4 -10z m3122 -6 c-3 -3 -12 -4 -19 -1 -8 3
-5 6 6 6 11 1 17 -2 13 -5z m246 -9 c-3 -9 -8 -14 -10 -11 -3 3 -2 9 2 15 9
16 15 13 8 -4z m-243 -25 c0 -5 -2 -10 -4 -10 -3 0 -8 5 -11 10 -3 6 -1 10 4
10 6 0 11 -4 11 -10z m982 -12 c-20 -20 -14 -28 14 -18 21 9 25 8 21 -4 -5
-13 -1 -12 30 0 19 8 32 11 29 6 -9 -16 33 -21 48 -7 8 8 18 10 27 5 15 -10
14 -12 -16 -28 -25 -14 -1 -16 26 -2 13 7 19 7 19 0 0 -5 -6 -10 -12 -11 -7 0
-3 -4 10 -9 12 -5 22 -13 22 -18 0 -5 11 -7 25 -4 16 3 25 0 25 -8 0 -7 -7
-10 -16 -6 -8 3 -26 -1 -39 -10 -14 -9 -32 -14 -40 -10 -13 4 -14 2 -5 -14 11
-20 5 -44 -9 -36 -4 3 -13 1 -21 -5 -11 -6 -5 -8 18 -5 28 3 32 1 27 -15 -5
-15 -1 -19 15 -19 12 0 19 4 15 9 -9 16 46 2 71 -18 20 -16 20 -18 6 -28 -14
-9 -15 -12 -3 -27 10 -12 10 -16 1 -16 -10 0 -10 -3 0 -15 6 -8 9 -18 6 -24
-4 -5 1 -16 10 -25 8 -9 13 -20 10 -25 -4 -5 0 -12 6 -14 8 -3 6 -6 -4 -6 -20
-1 -25 -31 -5 -31 8 0 7 -4 -3 -10 -13 -9 -13 -11 0 -21 13 -9 12 -10 -2 -5
-12 3 -18 0 -18 -10 0 -8 -4 -12 -10 -9 -13 8 -13 3 2 -32 6 -15 10 -32 9 -36
-3 -17 21 -47 39 -47 11 0 20 -5 20 -11 0 -6 -7 -8 -16 -5 -9 3 -19 6 -23 6
-4 0 -18 20 -30 45 -25 50 -31 56 -24 23 3 -18 2 -19 -5 -8 -5 8 -12 32 -16
53 -8 44 -62 154 -88 180 -10 10 -15 23 -12 29 4 6 3 8 -3 5 -5 -3 -19 6 -30
21 -34 47 -38 58 -13 37 13 -11 20 -14 15 -6 -4 8 -2 17 6 23 11 8 11 9 -2 5
-11 -4 -20 3 -28 19 -6 15 -16 22 -23 18 -7 -5 -5 -11 7 -21 11 -7 16 -13 12
-13 -10 0 -70 42 -79 54 -3 5 -17 11 -29 13 -13 2 -28 9 -34 15 -7 7 -3 9 16
4 19 -4 29 -1 33 10 5 12 1 14 -16 8 -20 -6 -21 -5 -9 10 9 11 10 16 2 16 -6
0 -14 -6 -17 -14 -6 -15 -54 -10 -54 6 0 5 9 6 20 3 21 -7 58 20 45 33 -3 4
-13 -2 -22 -13 -15 -20 -15 -20 -11 0 2 15 -2 19 -16 17 -11 -2 -15 1 -11 7 3
6 18 8 33 5 26 -6 27 -6 7 10 -19 16 -19 17 11 11 21 -4 35 -1 44 10 7 8 15
15 18 15 3 0 1 -5 -6 -12z m188 2 c0 -5 -5 -10 -11 -10 -5 0 -7 5 -4 10 3 6 8
10 11 10 2 0 4 -4 4 -10z m-4262 -45 c-3 -3 -9 2 -12 12 -6 14 -5 15 5 6 7 -7
10 -15 7 -18z m4501 -19 c-2 -2 -13 8 -23 22 l-19 27 24 -22 c12 -12 21 -24
18 -27z m-184 -6 c-3 -5 -10 -10 -16 -10 -5 0 -9 5 -9 10 0 6 7 10 16 10 8 0
12 -4 9 -10z m68 -27 c-7 -2 -19 -2 -25 0 -7 3 -2 5 12 5 14 0 19 -2 13 -5z
m-1316 -9 c-3 -3 -12 -4 -19 -1 -8 3 -5 6 6 6 11 1 17 -2 13 -5z m2240 -16
c-3 -8 -6 -5 -6 6 -1 11 2 17 5 13 3 -3 4 -12 1 -19z m-802 2 c3 -5 2 -10 -4
-10 -5 0 -13 5 -16 10 -3 6 -2 10 4 10 5 0 13 -4 16 -10z m-2342 -7 c-7 -2
-19 -2 -25 0 -7 3 -2 5 12 5 14 0 19 -2 13 -5z m-923 -13 c-20 -13 -33 -13
-25 0 3 6 14 10 23 10 15 0 15 -2 2 -10z m2500 6 c0 -2 -8 -10 -17 -17 -16
-13 -17 -12 -4 4 13 16 21 21 21 13z m-3847 -26 c-3 -12 -8 -19 -11 -16 -5 6
5 36 12 36 2 0 2 -9 -1 -20z m3157 -2 c12 -8 11 -8 -3 -4 -10 3 -27 6 -38 6
-10 0 -19 5 -19 11 0 11 33 4 60 -13z m175 12 c3 -5 2 -10 -4 -10 -5 0 -13 5
-16 10 -3 6 -2 10 4 10 5 0 13 -4 16 -10z m1306 -7 c13 -16 12 -17 -3 -4 -10
7 -18 15 -18 17 0 8 8 3 21 -13z m-3907 -11 c2 -4 -21 -8 -52 -8 -44 -1 -50 1
-27 6 42 11 73 11 79 2z m3416 -3 c0 -5 5 -7 10 -4 17 10 67 -33 73 -62 10
-48 25 -99 26 -85 2 20 17 14 29 -14 7 -15 17 -22 24 -18 7 5 8 3 4 -5 -5 -7
-1 -20 7 -29 19 -21 58 -99 55 -109 -4 -17 38 -113 48 -109 6 2 11 -2 11 -10
0 -8 -9 -14 -19 -14 -11 0 -17 4 -13 9 3 5 0 13 -6 17 -8 5 -10 -1 -7 -18 3
-18 0 -25 -11 -25 -19 0 -61 36 -61 52 0 16 -35 47 -43 38 -4 -3 -7 1 -7 10 0
9 -4 17 -10 17 -5 0 -10 -4 -10 -9 0 -11 20 -26 34 -26 5 0 20 -19 33 -42 13
-24 19 -43 14 -43 -5 0 -12 7 -15 16 -3 8 -10 12 -16 9 -5 -3 -10 1 -10 9 0 8
-13 30 -29 48 -24 28 -26 35 -15 46 15 14 19 72 5 72 -8 0 -15 22 -28 98 -3
17 -9 32 -13 32 -4 0 -15 12 -25 26 -9 15 -12 23 -6 20 7 -4 11 1 11 13 0 12
-4 21 -10 21 -5 0 -10 5 -10 12 0 6 11 1 25 -12 14 -13 25 -19 25 -13 0 14
-41 50 -68 58 -12 3 -20 10 -17 15 3 5 -3 11 -12 13 -14 4 -13 5 5 6 12 0 22
-4 22 -10z m314 -7 c2 -4 -4 -8 -15 -8 -10 0 -19 4 -19 8 0 4 6 8 14 8 8 0 17
-4 20 -8z m80 -27 c8 -8 19 -15 25 -15 5 0 13 -4 16 -10 7 -11 -42 5 -60 20
-5 4 -19 10 -30 13 -16 4 -14 5 7 6 15 0 33 -6 42 -14z m61 -5 c10 -11 16 -20
13 -20 -3 0 -13 9 -23 20 -10 11 -16 20 -13 20 3 0 13 -9 23 -20z m30 -50 c10
-11 16 -20 13 -20 -3 0 -13 9 -23 20 -10 11 -16 20 -13 20 3 0 13 -9 23 -20z
m-131 -16 c6 -16 0 -34 -12 -34 -4 0 -8 11 -8 25 -2 28 11 34 20 9z m-4564
-17 c0 -2 -12 -14 -26 -28 l-27 -24 18 28 c14 22 35 36 35 24z m-45 -17 c-3
-5 -12 -10 -18 -10 -7 0 -6 4 3 10 19 12 23 12 15 0z m815 -25 c0 -5 -5 -3
-10 5 -5 8 -10 20 -10 25 0 6 5 3 10 -5 5 -8 10 -19 10 -25z m-74 5 c0 -12 -4
-16 -9 -11 -5 5 -6 14 -3 20 10 15 12 14 12 -9z m3884 6 c0 -3 -4 -8 -10 -11
-5 -3 -10 -1 -10 4 0 6 5 11 10 11 6 0 10 -2 10 -4z m208 -31 c-3 -3 -9 2 -12
12 -6 14 -5 15 5 6 7 -7 10 -15 7 -18z m-4917 -26 c-6 -18 -11 -43 -11 -55 0
-13 -4 -24 -9 -24 -8 0 2 76 14 109 11 29 17 0 6 -30z m783 17 c-10 -8 -21
-12 -24 -10 -5 6 21 24 34 24 6 0 1 -6 -10 -14z m36 -41 c0 -14 -2 -25 -4 -25
-2 0 -6 11 -8 25 -3 14 -1 25 3 25 5 0 9 -11 9 -25z m2270 -9 c0 -2 -7 -7 -16
-10 -8 -3 -12 -2 -9 4 6 10 25 14 25 6z m1328 -40 c3 -14 0 -15 -22 -5 -14 7
-24 19 -23 30 1 16 4 17 22 5 11 -7 21 -21 23 -30z m-3582 9 c-9 -9 -16 -13
-16 -8 0 12 22 34 28 28 2 -2 -3 -11 -12 -20z m401 3 c-3 -8 -6 -5 -6 6 -1 11
2 17 5 13 3 -3 4 -12 1 -19z m884 -11 c9 -12 24 -35 33 -52 14 -24 15 -26 2
-10 -9 11 -25 29 -35 40 -25 30 -33 45 -24 45 4 0 15 -11 24 -23z m1448 -14
c-12 -21 -29 -45 -37 -53 -16 -15 -7 1 34 65 26 39 28 29 3 -12z m766 27 c3
-5 1 -10 -4 -10 -6 0 -11 5 -11 10 0 6 2 10 4 10 3 0 8 -4 11 -10z m-1575 -55
c-29 -20 -55 -34 -57 -32 -4 5 88 67 101 67 4 0 -16 -16 -44 -35z m1638 -1
c-4 -3 -12 5 -18 18 -12 22 -12 22 6 6 10 -10 15 -20 12 -24z m-1413 16 c-3
-5 -20 -19 -38 -30 -32 -22 -32 -22 3 9 37 32 45 37 35 21z m1366 -57 c13 -16
12 -17 -3 -4 -10 7 -18 15 -18 17 0 8 8 3 21 -13z m-1748 -13 c-3 -11 -10 -23
-16 -27 -5 -3 -8 -2 -5 3 3 5 8 17 11 27 9 24 16 22 10 -3z m302 10 c-3 -5
-16 -15 -28 -21 -19 -9 -19 -8 3 10 28 23 34 26 25 11z m-711 -25 c9 -14 13
-25 8 -25 -5 0 -14 11 -20 25 -6 14 -10 25 -8 25 2 0 11 -11 20 -25z m2227
-27 c16 -30 7 -29 -19 3 -17 21 -19 27 -7 23 8 -4 20 -15 26 -26z m-2308 -107
c19 -29 60 -79 92 -111 31 -33 55 -65 53 -72 -2 -6 -15 4 -28 23 -13 19 -29
37 -36 42 -21 13 -110 130 -133 174 -11 23 -21 50 -21 60 0 10 9 -1 19 -24 11
-22 35 -64 54 -92z m2547 75 c0 -12 -5 -7 -19 24 -11 24 -11 24 3 6 9 -11 16
-24 16 -30z m-2427 -7 c24 -43 17 -45 -11 -3 -12 19 -19 34 -15 34 5 0 16 -14
26 -31z m1117 27 c0 -2 -8 -10 -17 -17 -16 -13 -17 -12 -4 4 13 16 21 21 21
13z m-3300 -10 c0 -2 -13 -6 -29 -8 -17 -2 -28 -1 -25 4 5 8 54 12 54 4z
m3326 -96 c-22 -44 -41 -78 -44 -76 -2 2 1 13 7 24 6 12 11 29 11 40 0 13 56
91 66 92 0 0 -17 -36 -40 -80z m1287 63 c-13 -2 -33 -2 -45 0 -13 2 -3 4 22 4
25 0 35 -2 23 -4z m-183 -45 c0 -14 -19 1 -31 25 -12 22 -12 22 10 3 11 -11
21 -23 21 -28z m-2190 2 c11 -11 16 -20 12 -20 -5 0 -17 9 -27 20 -10 11 -15
20 -12 20 4 0 16 -9 27 -20z m2256 -5 c77 14 124 17 124 8 0 -6 23 -8 54 -5
29 2 56 0 59 -5 4 -6 -14 -8 -43 -5 -35 3 -50 0 -50 -8 0 -9 -4 -9 -16 1 -17
14 -61 14 -125 0 -31 -7 -38 -5 -49 13 -12 19 -11 20 2 8 9 -7 28 -10 44 -7z
m-1245 -38 c-10 -9 -11 -8 -5 6 3 10 9 15 12 12 3 -3 0 -11 -7 -18z m-938 -9
c44 -31 57 -45 50 -52 -12 -11 -22 -6 -28 14 -3 11 -12 20 -19 20 -7 0 -21 9
-31 20 -24 26 -11 25 28 -2z m387 9 c0 -2 -17 -19 -37 -38 l-38 -34 34 38 c33
34 41 42 41 34z m672 -31 c-9 -5 -26 -16 -37 -25 -11 -9 -6 0 10 20 18 21 33
31 37 25 4 -6 -1 -15 -10 -20z m1151 4 c3 -11 1 -20 -4 -20 -5 0 -9 2 -9 4 0
2 -3 11 -6 20 -3 9 -2 16 4 16 5 0 12 -9 15 -20z m-35 -15 c-3 -3 -9 2 -12 12
-6 14 -5 15 5 6 7 -7 10 -15 7 -18z m-1323 -80 c-44 -41 -81 -72 -83 -70 -3 2
-11 -2 -19 -10 -8 -8 -19 -15 -25 -15 -16 0 43 52 61 55 9 1 14 5 12 9 -4 10
80 97 89 91 3 -2 12 0 20 6 35 21 20 3 -55 -66z m99 14 c-27 -28 -60 -62 -73
-76 -13 -13 -25 -23 -27 -20 -5 4 140 153 145 149 3 -1 -17 -25 -45 -53z
m1301 43 c-3 -3 -11 0 -18 7 -9 10 -8 11 6 5 10 -3 15 -9 12 -12z m-2470 -12
c10 -11 16 -20 13 -20 -3 0 -13 9 -23 20 -10 11 -16 20 -13 20 3 0 13 -9 23
-20z m2424 -25 c0 -5 -6 -1 -14 9 -8 11 -15 24 -15 30 0 5 7 1 15 -10 8 -10
14 -23 14 -29z m16 35 c3 -5 1 -10 -4 -10 -6 0 -11 5 -11 10 0 6 2 10 4 10 3
0 8 -4 11 -10z m89 -6 c3 -8 2 -12 -4 -9 -6 3 -10 10 -10 16 0 14 7 11 14 -7z
m-74 -24 c0 -5 -2 -10 -4 -10 -3 0 -8 5 -11 10 -3 6 -1 10 4 10 6 0 11 -4 11
-10z m50 0 c0 -5 -5 -10 -11 -10 -5 0 -7 5 -4 10 3 6 8 10 11 10 2 0 4 -4 4
-10z m-1318 -32 c-7 -7 -12 -8 -12 -2 0 14 12 26 19 19 2 -3 -1 -11 -7 -17z
m1248 -8 c-20 -13 -43 -13 -35 0 3 6 16 10 28 10 18 0 19 -2 7 -10z m60 1 c0
-5 -9 -7 -20 -4 -11 3 -20 7 -20 9 0 2 9 4 20 4 11 0 20 -4 20 -9z m46 -9
c-10 -2 -22 0 -28 6 -6 6 0 7 19 4 21 -5 23 -7 9 -10z m-1548 -117 c-15 -14
-31 -25 -35 -25 -8 1 48 50 57 50 3 0 -7 -11 -22 -25z m328 -3 c-18 -16 -18
-16 -6 6 6 13 14 21 18 18 3 -4 -2 -14 -12 -24z m-2509 -20 c8 -5 6 -14 -8
-31 -10 -13 -19 -18 -19 -13 0 6 5 14 10 17 17 10 11 25 -7 18 -11 -4 -14 -3
-9 5 8 14 16 15 33 4z m253 -17 c33 -17 40 -28 13 -18 -23 8 -60 33 -50 33 5
0 21 -7 37 -15z m1870 1 c0 -2 -8 -10 -17 -17 -16 -13 -17 -12 -4 4 13 16 21
21 21 13z m320 -1 c0 -2 -10 -9 -22 -15 -22 -11 -22 -10 -4 4 21 17 26 19 26
11z m-2276 -46 c36 -17 68 -34 70 -38 2 -3 -3 -15 -11 -26 -15 -20 -15 -20
-11 0 2 15 -7 26 -37 42 -22 11 -44 19 -49 15 -5 -3 -6 0 -2 6 5 8 0 12 -13
12 -12 0 -21 5 -21 10 0 14 -1 14 74 -21z m191 -19 c3 -5 1 -10 -4 -10 -6 0
-11 5 -11 10 0 6 2 10 4 10 3 0 8 -4 11 -10z m-1219 -102 c-9 -101 -17 -150
-23 -144 -6 6 18 216 24 216 3 0 2 -33 -1 -72z m1239 52 c10 -11 16 -20 13
-20 -3 0 -13 9 -23 20 -10 11 -16 20 -13 20 3 0 13 -9 23 -20z m75 -43 c0 -5
-8 -3 -18 6 -10 10 -21 15 -24 12 -2 -3 -5 1 -5 9 0 12 4 12 24 -1 13 -8 23
-20 23 -26z m-119 0 c10 -3 19 -12 19 -21 0 -13 -4 -14 -17 -7 -40 23 -44 28
-36 47 6 16 8 17 11 3 2 -10 12 -19 23 -22z m-306 3 c19 -8 19 -9 -2 -9 -12
-1 -25 4 -28 9 -7 12 2 12 30 0z m2075 -15 c8 -6 35 -17 60 -24 73 -20 97 -31
97 -47 0 -12 -3 -12 -18 2 -9 8 -23 17 -31 18 -66 13 -147 50 -148 69 0 9 15
2 40 -18z m-62 8 c-10 -2 -28 -2 -40 0 -13 2 -5 4 17 4 22 1 32 -1 23 -4z
m-1648 -33 c0 -4 -7 -10 -15 -14 -10 -4 -15 1 -15 14 0 13 5 18 15 14 8 -4 15
-10 15 -14z m105 2 c-3 -3 -11 0 -18 7 -9 10 -8 11 6 5 10 -3 15 -9 12 -12z
m-360 -3 c11 -16 1 -19 -13 -3 -7 8 -8 14 -3 14 5 0 13 -5 16 -11z m3293 -6
c-10 -2 -28 -2 -40 0 -13 2 -5 4 17 4 22 1 32 -1 23 -4z m52 -9 c0 -11 5 -14
16 -10 12 5 15 2 10 -10 -3 -8 -6 -24 -6 -35 0 -10 -4 -19 -9 -19 -4 0 -7 11
-6 25 2 17 -2 25 -11 25 -9 0 -12 5 -8 11 3 6 0 15 -7 20 -11 7 -10 9 4 9 9 0
17 -7 17 -16z m-3319 -27 l-24 -22 19 27 c10 14 21 24 23 22 3 -3 -6 -15 -18
-27z m3159 23 c0 -5 -4 -10 -10 -10 -5 0 -10 5 -10 10 0 6 5 10 10 10 6 0 10
-4 10 -10z m-4075 -20 c-10 -11 -20 -18 -23 -15 -7 6 18 35 31 35 5 0 2 -9 -8
-20z m4151 -21 c0 -9 -6 -15 -13 -12 -7 3 -13 11 -13 17 0 7 6 13 13 13 7 0
13 -8 13 -18z m64 -12 c0 -4 -6 -2 -14 5 -8 7 -12 17 -9 22 5 8 23 -12 23 -27z
m-3179 -5 c-7 -2 -18 1 -23 6 -8 8 -4 9 13 5 13 -4 18 -8 10 -11z m2042 -55
c17 -34 33 -65 35 -69 6 -14 -44 -8 -84 8 -22 9 -66 24 -99 34 -39 11 -73 30
-97 53 l-38 35 44 -3 c52 -3 67 -11 59 -30 -3 -8 0 -15 7 -15 6 0 8 5 5 10 -3
6 -1 10 5 10 6 0 9 4 5 9 -3 5 0 13 6 17 9 5 10 -1 5 -22 -6 -26 -5 -27 7 -11
16 19 37 23 37 5 0 -6 3 -8 7 -5 3 4 13 1 21 -6 13 -9 14 -9 8 1 -4 6 -2 12 3
12 16 0 13 -20 -4 -26 -21 -8 -19 -20 4 -20 11 0 17 4 14 9 -3 5 4 6 16 2 16
-5 20 -3 15 9 -3 9 -10 13 -15 10 -5 -3 -9 1 -9 10 0 8 -3 22 -7 32 -15 40 19
-1 50 -59z m-312 46 c13 -16 12 -17 -3 -4 -10 7 -18 15 -18 17 0 8 8 3 21 -13z
m-2959 -45 c-6 -18 -13 -42 -18 -52 -4 -12 -4 -17 2 -13 6 4 9 -6 6 -23 -2
-17 -8 -27 -13 -24 -5 3 -9 -11 -9 -30 0 -20 -5 -36 -11 -36 -16 0 -4 88 23
170 21 65 38 71 20 8z m1273 42 c3 -5 -1 -10 -9 -10 -9 0 -16 5 -16 10 0 6 4
10 9 10 6 0 13 -4 16 -10z m2146 -120 c6 -19 15 -39 20 -44 16 -18 9 -26 -10
-14 -11 7 -18 15 -15 20 6 10 -20 68 -45 98 -18 21 -20 22 -15 5 5 -16 4 -17
-4 -5 -6 8 -8 18 -6 22 3 4 1 8 -4 8 -5 0 -12 10 -15 23 -9 36 81 -71 94 -113z
m1026 88 c-3 -8 -6 -5 -6 6 -1 11 2 17 5 13 3 -3 4 -12 1 -19z m-3537 -14 c0
-2 -8 0 -19 5 -10 6 -22 7 -26 3 -5 -4 -5 -1 -1 6 5 9 12 9 27 2 10 -6 19 -13
19 -16z m381 17 c7 11 9 10 9 -4 0 -10 4 -16 9 -12 5 3 12 1 16 -4 3 -6 -3 -8
-15 -6 -28 5 -40 14 -39 28 0 8 3 7 6 -2 5 -11 7 -11 14 0z m1186 3 c-3 -3
-12 -4 -19 -1 -8 3 -5 6 6 6 11 1 17 -2 13 -5z m657 -84 c45 -15 97 -31 115
-35 26 -5 30 -10 20 -17 -10 -7 -6 -8 14 -5 15 2 30 0 33 -4 8 -14 -44 -10
-83 6 -40 17 -55 19 -33 5 30 -19 2 -19 -36 0 -22 12 -40 16 -42 10 -2 -5 -14
-3 -28 7 -14 8 -22 18 -20 21 3 2 -11 17 -32 32 -20 15 -44 35 -52 46 -9 11 0
8 24 -10 21 -16 75 -41 120 -56z m1283 74 c-3 -3 -12 -4 -19 -1 -8 3 -5 6 6 6
11 1 17 -2 13 -5z m-1037 -78 c0 -5 -7 -3 -15 4 -8 7 -12 17 -9 22 7 10 24 -9
24 -26z m-3323 2 c-3 -8 -6 -5 -6 6 -1 11 2 17 5 13 3 -3 4 -12 1 -19z m938
12 c-3 -5 -12 -10 -18 -10 -7 0 -6 4 3 10 19 12 23 12 15 0z m35 1 c0 -6 -4
-13 -10 -16 -5 -3 -10 1 -10 9 0 9 5 16 10 16 6 0 10 -4 10 -9z m1060 -1 c-8
-5 -19 -10 -25 -10 -5 0 -3 5 5 10 8 5 20 10 25 10 6 0 3 -5 -5 -10z m1420
-30 c11 -22 18 -40 15 -40 -2 0 -14 18 -25 40 -11 22 -18 40 -15 40 2 0 14
-18 25 -40z m803 33 c-7 -2 -21 -2 -30 0 -10 3 -4 5 12 5 17 0 24 -2 18 -5z
m-70 -10 c-7 -2 -19 -2 -25 0 -7 3 -2 5 12 5 14 0 19 -2 13 -5z m206 -12 c8
-5 -5 -7 -35 -4 -27 3 -51 7 -53 9 -9 8 75 3 88 -5z m-1659 -133 c0 -8 -80 78
-99 107 -7 11 12 -7 43 -40 30 -33 56 -63 56 -67z m600 102 c0 -5 -2 -10 -4
-10 -3 0 -8 5 -11 10 -3 6 -1 10 4 10 6 0 11 -4 11 -10z m1213 -20 c14 -11 31
-20 39 -21 8 0 9 -2 2 -5 -7 -3 -29 7 -49 21 -21 14 -33 25 -28 25 6 0 22 -9
36 -20z m-1363 -20 c0 -5 -2 -10 -4 -10 -3 0 -8 5 -11 10 -3 6 -1 10 4 10 6 0
11 -4 11 -10z m-3169 -52 c-14 -29 -21 -36 -21 -23 l-1 20 -8 -20 c-5 -11 -6
-24 -3 -29 3 -5 0 -6 -6 -2 -6 4 -12 -5 -15 -21 -3 -23 -4 -22 -6 9 -1 27 6
44 25 65 14 15 22 22 18 14 -5 -10 -3 -12 5 -7 7 5 10 14 7 21 -3 8 0 16 7 18
20 7 19 1 -2 -45z m3319 42 c0 -5 -5 -10 -11 -10 -5 0 -7 5 -4 10 3 6 8 10 11
10 2 0 4 -4 4 -10z m-3249 -18 c-12 -22 -41 -48 -41 -36 0 8 40 54 47 54 2 0
-1 -8 -6 -18z m101 -49 c-39 -42 -70 -96 -97 -168 -4 -11 -9 -15 -12 -9 -13
35 106 224 142 224 6 0 -9 -21 -33 -47z m1326 30 c-10 -2 -26 -2 -35 0 -10 3
-2 5 17 5 19 0 27 -2 18 -5z m602 3 c0 -3 -4 -8 -10 -11 -5 -3 -10 -1 -10 4 0
6 5 11 10 11 6 0 10 -2 10 -4z m416 -22 c-21 -20 -20 -34 2 -34 11 -1 6 -6
-13 -15 l-30 -14 35 5 c19 2 28 1 20 -2 -57 -24 -79 -32 -77 -26 1 4 -2 7 -8
7 -5 0 -9 -3 -7 -7 1 -5 -5 -8 -13 -8 -11 0 -12 5 -5 26 9 23 8 25 -12 18 -13
-4 -28 -14 -35 -23 -10 -14 -11 -12 -7 12 3 17 0 27 -7 27 -7 0 -9 3 -6 6 4 4
13 2 20 -4 10 -9 18 -8 33 2 11 9 30 12 48 9 22 -5 27 -3 21 7 -5 8 -4 11 2 7
6 -4 16 0 23 8 7 8 17 15 22 15 5 0 2 -7 -6 -16z m-1328 -21 c-10 -2 -26 -2
-35 0 -10 3 -2 5 17 5 19 0 27 -2 18 -5z m1552 -14 c0 -6 -4 -7 -10 -4 -5 3
-10 11 -10 16 0 6 5 7 10 4 6 -3 10 -11 10 -16z m-405 1 c3 -5 1 -10 -4 -10
-6 0 -11 5 -11 10 0 6 2 10 4 10 3 0 8 -4 11 -10z m-1290 -10 c-3 -5 -18 -9
-33 -9 l-27 1 30 8 c17 4 31 8 33 9 2 0 0 -3 -3 -9z m710 -8 c-14 -12 -65 -32
-65 -26 0 3 15 11 33 19 37 17 45 18 32 7z m-775 -6 c0 -2 -7 -7 -16 -10 -8
-3 -12 -2 -9 4 6 10 25 14 25 6z m1076 -38 c-8 -19 -22 -41 -32 -49 -11 -9 -7
4 12 39 31 58 42 64 20 10z m-2035 -15 c-3 -40 -5 -45 -16 -30 -7 9 -17 17
-23 17 -6 0 -9 7 -6 15 4 8 10 15 16 15 5 0 6 -4 3 -10 -3 -5 -1 -10 4 -10 6
0 11 11 11 25 0 14 3 25 8 25 4 0 5 -21 3 -47z m899 24 c0 -2 -10 -12 -22 -23
l-23 -19 19 23 c18 21 26 27 26 19z m-963 -29 c-3 -8 -6 -5 -6 6 -1 11 2 17 5
13 3 -3 4 -12 1 -19z m1753 1 c-7 -11 -14 -18 -17 -15 -3 3 0 12 7 21 18 21
23 19 10 -6z m-980 7 c0 -3 -4 -8 -10 -11 -5 -3 -10 -1 -10 4 0 6 5 11 10 11
6 0 10 -2 10 -4z m710 -10 c0 -2 -8 -10 -17 -17 -16 -13 -17 -12 -4 4 13 16
21 21 21 13z m1135 -15 c-27 -10 -59 -22 -70 -26 -12 -5 -17 -4 -12 1 12 12
88 42 112 43 11 0 -2 -8 -30 -18z m1728 -23 c-7 -13 -29 3 -29 22 0 18 1 18
17 2 9 -9 15 -20 12 -24z m-3612 9 c-10 -9 -11 -8 -5 6 3 10 9 15 12 12 3 -3
0 -11 -7 -18z m3650 0 c39 -34 81 -108 44 -77 -12 10 -15 10 -15 -1 0 -7 -16
2 -35 21 -22 22 -32 37 -25 44 12 12 41 -12 38 -32 -2 -8 3 -17 10 -19 24 -9
11 20 -24 53 -39 38 -34 46 7 11z m-4271 -77 c6 -4 6 -21 0 -50 l-9 -45 2 42
c1 24 -1 44 -6 46 -5 1 -11 25 -13 52 l-3 50 9 -44 c5 -25 14 -47 20 -51z
m4051 73 c12 -14 12 -15 0 -9 -22 14 -32 -16 -13 -39 17 -20 17 -20 -5 -1 -17
14 -20 23 -13 36 5 10 6 20 3 24 -3 3 -2 6 4 6 6 0 17 -8 24 -17z m187 -60 c3
-16 1 -16 -15 2 -10 11 -27 29 -38 39 -17 17 -16 17 15 -2 19 -12 36 -29 38
-39z m-3618 24 c0 -8 -3 -8 -9 2 -7 10 -12 8 -25 -10 -9 -13 -16 -19 -16 -15
0 5 7 18 16 27 17 19 34 17 34 -4z m3769 -11 c-3 -3 -11 5 -18 17 -13 21 -12
21 5 5 10 -10 16 -20 13 -22z m-3369 21 c0 -2 -10 -12 -22 -23 l-23 -19 19 23
c18 21 26 27 26 19z m310 -1 c0 -3 -4 -8 -10 -11 -5 -3 -10 -1 -10 4 0 6 5 11
10 11 6 0 10 -2 10 -4z m2867 -103 c14 -24 21 -43 15 -43 -5 0 -13 11 -16 25
-4 14 -10 23 -15 20 -5 -2 -17 7 -26 22 -10 15 -28 36 -41 48 -40 37 -27 40
17 4 22 -19 52 -53 66 -76z m-236 80 c13 -16 12 -17 -3 -4 -10 7 -18 15 -18
17 0 8 8 3 21 -13z m-2680 -60 c-10 -21 -28 -47 -40 -57 -13 -12 -7 3 16 37
20 31 39 57 40 57 2 0 -5 -17 -16 -37z m709 27 c0 -5 -5 -10 -11 -10 -5 0 -7
5 -4 10 3 6 8 10 11 10 2 0 4 -4 4 -10z m2114 -19 c18 -15 19 -15 12 3 -7 19
-6 19 14 1 11 -10 20 -23 19 -29 0 -6 -3 -6 -6 2 -2 6 -9 12 -15 12 -6 0 -8
-7 -4 -15 8 -22 4 -19 -35 22 -33 35 -25 37 15 4z m-64 -79 c0 -19 -18 -22
-31 -5 -12 15 -12 16 6 9 24 -9 14 3 -16 18 -12 6 -28 27 -35 46 l-15 34 46
-46 c25 -25 45 -51 45 -56z m230 77 c16 -30 8 -31 -13 -3 -10 13 -13 24 -8 24
6 0 15 -9 21 -21z m-250 -20 c0 -6 -4 -7 -10 -4 -5 3 -10 11 -10 16 0 6 5 7
10 4 6 -3 10 -11 10 -16z m76 -29 c-10 -3 -17 -10 -16 -15 1 -5 -3 -11 -9 -13
-16 -5 -13 14 5 32 8 9 21 13 27 9 7 -4 4 -9 -7 -13z m-4160 -77 c-6 -6 -36
52 -36 69 1 7 10 -4 21 -25 11 -22 18 -41 15 -44z m2094 53 c0 -2 -7 -7 -16
-10 -8 -3 -12 -2 -9 4 6 10 25 14 25 6z m1925 -6 c3 -5 1 -10 -4 -10 -6 0 -11
5 -11 10 0 6 2 10 4 10 3 0 8 -4 11 -10z m-1965 -14 c0 -2 -7 -7 -16 -10 -8
-3 -12 -2 -9 4 6 10 25 14 25 6z m-691 -32 c-13 -15 -62 -44 -76 -44 -6 0 76
57 86 59 2 1 -2 -6 -10 -15z m2426 6 c13 -6 15 -9 5 -9 -8 0 -22 4 -30 9 -18
12 -2 12 25 0z m255 -6 c0 -14 2 -14 22 0 25 18 48 21 48 7 0 -12 -69 -53 -80
-46 -10 6 -10 55 1 55 5 0 9 -7 9 -16z m-175 -14 c3 -6 -1 -7 -9 -4 -18 7 -21
14 -7 14 6 0 13 -4 16 -10z m-3800 -183 c41 -34 51 -47 37 -47 -11 0 -25 7
-32 15 -7 8 -30 25 -51 37 -39 22 -50 40 -54 88 -1 14 -5 37 -9 50 -4 14 6 -2
22 -36 21 -44 45 -73 87 -107z m3850 153 c4 -6 11 -7 17 -4 7 4 8 2 4 -4 -4
-7 3 -16 17 -21 23 -9 46 -31 32 -31 -8 0 -95 60 -95 65 0 9 19 5 25 -5z
m-3584 -37 c13 -16 12 -17 -3 -4 -17 13 -22 21 -14 21 2 0 10 -8 17 -17z m374
-23 c25 -11 -1 -11 -35 0 -20 6 -21 8 -5 8 11 0 29 -3 40 -8z m-315 -45 l25
-30 -33 29 c-17 17 -32 34 -32 40 0 6 3 6 8 1 4 -6 18 -23 32 -40z m380 25
c18 -12 2 -12 -25 0 -13 6 -15 9 -5 9 8 0 22 -4 30 -9z m3810 -70 c-11 -16
-26 -33 -32 -36 -7 -4 1 9 16 29 34 44 46 50 16 7z m797 -6 c44 -26 62 -44 40
-40 -7 1 -24 12 -37 24 -31 29 -84 38 -138 23 -61 -16 -65 -6 -5 12 56 18 83
14 140 -19z m-5361 -74 c3 -13 14 -39 25 -57 12 -18 16 -33 11 -33 -13 0 -73
143 -72 174 1 15 31 -54 36 -84z m5164 60 c0 -5 -6 -10 -14 -10 -7 0 -26 -10
-42 -22 l-29 -22 20 23 c16 19 41 35 63 40 1 1 2 -3 2 -9z m-5625 -38 c-3 -3
-16 5 -28 17 l-22 23 28 -17 c15 -10 25 -20 22 -23z m4933 -4 c-14 -13 -54
-42 -89 -66 -49 -33 -56 -35 -29 -11 33 29 131 98 139 99 2 0 -7 -10 -21 -22z
m-4328 2 c13 -8 13 -10 -2 -10 -9 0 -20 5 -23 10 -8 13 5 13 25 0z m-470 -97
c0 -7 -39 17 -46 28 -3 6 5 3 20 -6 14 -10 26 -19 26 -22z m401 -85 c10 -21
17 -38 15 -38 -7 0 -56 85 -56 96 0 11 15 -10 41 -58z m-861 2 c-12 -16 -24
-30 -26 -30 -3 0 4 14 16 30 12 17 24 30 26 30 3 0 -4 -13 -16 -30z m6462 -54
c29 -13 64 -36 78 -51 l25 -29 -40 31 c-43 32 -129 63 -176 63 -35 0 -137 -53
-301 -158 -71 -45 -128 -79 -128 -77 0 3 33 26 73 52 39 25 101 65 137 88 167
110 233 126 332 81z m-552 -229 c0 -2 -10 -12 -22 -23 l-23 -19 19 23 c18 21
26 27 26 19z m-5150 -92 c-14 -8 -29 -14 -35 -14 -5 0 1 6 15 14 14 8 30 14
35 14 6 0 -1 -6 -15 -14z m4938 -51 c-13 -13 -20 -14 -34 -4 -13 8 -14 10 -3
7 9 -3 22 -1 30 4 22 14 25 11 7 -7z m612 2 c0 -2 -8 -10 -17 -17 -16 -13 -17
-12 -4 4 13 16 21 21 21 13z m-5882 -51 c-3 -3 -9 2 -12 12 -6 14 -5 15 5 6 7
-7 10 -15 7 -18z m5834 -5 c-12 -11 -25 -20 -29 -20 -9 1 36 40 45 40 3 0 -4
-9 -16 -20z m-5809 -27 c-7 -2 -19 -2 -25 0 -7 3 -2 5 12 5 14 0 19 -2 13 -5z
m5737 -36 c0 -2 -29 -27 -65 -55 -82 -66 -86 -60 -4 8 55 46 69 55 69 47z
m-219 -187 c-24 -20 -51 -27 -51 -12 0 6 41 24 70 30 3 1 -6 -8 -19 -18z
m-6193 -15 c-3 -3 -9 2 -12 12 -6 14 -5 15 5 6 7 -7 10 -15 7 -18z m645 -505
c4 0 5 4 2 10 -4 6 1 7 11 3 11 -4 13 -8 6 -11 -7 -2 -9 -8 -6 -14 4 -6 -2 -6
-14 1 -12 6 -24 17 -28 24 -5 9 -4 9 7 0 7 -7 17 -13 22 -13z m177 -126 c0 -2
-9 0 -20 6 -11 6 -20 13 -20 16 0 2 9 0 20 -6 11 -6 20 -13 20 -16z m47 -20
c-3 -3 -12 -4 -19 -1 -8 3 -5 6 6 6 11 1 17 -2 13 -5z"/>
<path d="M4456 7903 c-6 -14 -5 -15 5 -6 7 7 10 15 7 18 -3 3 -9 -2 -12 -12z"/>
<path d="M5698 7857 c8 -9 11 -20 8 -25 -3 -5 3 -17 14 -27 20 -18 20 -18 7
20 -8 22 -20 41 -28 44 -12 4 -12 2 -1 -12z"/>
<path d="M5595 7650 c3 -5 8 -10 11 -10 2 0 4 5 4 10 0 6 -5 10 -11 10 -5 0
-7 -4 -4 -10z"/>
<path d="M5630 7290 c-6 -11 -8 -20 -6 -20 3 0 10 9 16 20 6 11 8 20 6 20 -3
0 -10 -9 -16 -20z"/>
<path d="M4134 7164 c-4 -14 -2 -30 3 -35 5 -5 9 5 9 26 0 42 -3 44 -12 9z"/>
<path d="M4234 7158 c3 -13 5 -26 5 -30 1 -5 5 -8 11 -8 6 0 6 9 0 24 -5 13
-6 27 -3 30 4 3 1 6 -5 6 -7 0 -10 -10 -8 -22z"/>
<path d="M4130 7079 c0 -5 5 -7 10 -4 6 3 10 8 10 11 0 2 -4 4 -10 4 -5 0 -10
-5 -10 -11z"/>
<path d="M5940 7753 c0 -24 2 -43 4 -43 8 0 12 60 4 72 -4 8 -8 -4 -8 -29z"/>
<path d="M5300 7739 c0 -5 5 -7 10 -4 6 3 10 8 10 11 0 2 -4 4 -10 4 -5 0 -10
-5 -10 -11z"/>
<path d="M5377 7621 c-4 -17 -3 -21 5 -13 5 5 8 16 6 23 -3 8 -7 3 -11 -10z"/>
<path d="M5250 7610 c0 -5 5 -10 11 -10 5 0 7 5 4 10 -3 6 -8 10 -11 10 -2 0
-4 -4 -4 -10z"/>
<path d="M5340 7557 c0 -8 7 -14 15 -14 11 0 12 4 4 14 -6 7 -13 13 -15 13 -2
0 -4 -6 -4 -13z"/>
<path d="M5301 7494 c-17 -38 -6 -41 12 -5 9 17 12 31 8 31 -4 0 -13 -12 -20
-26z"/>
<path d="M5791 7504 c0 -11 3 -14 6 -6 3 7 2 16 -1 19 -3 4 -6 -2 -5 -13z"/>
<path d="M5771 7394 c0 -11 3 -14 6 -6 3 7 2 16 -1 19 -3 4 -6 -2 -5 -13z"/>
<path d="M6071 7484 c0 -11 3 -14 6 -6 3 7 2 16 -1 19 -3 4 -6 -2 -5 -13z"/>
<path d="M6050 7311 c0 -5 5 -13 10 -16 6 -3 10 -2 10 4 0 5 -4 13 -10 16 -5
3 -10 2 -10 -4z"/>
<path d="M7135 7416 c17 -14 35 -26 40 -26 11 1 -20 27 -50 41 -11 6 -6 -1 10
-15z"/>
<path d="M7038 7116 c26 -25 49 -42 52 -39 5 5 -80 82 -92 83 -4 0 14 -20 40
-44z"/>
<path d="M5875 6140 c-10 -11 -13 -20 -7 -20 6 0 16 9 22 20 6 11 9 20 7 20
-2 0 -12 -9 -22 -20z"/>
<path d="M4181 6179 c1 -21 17 -57 18 -40 1 11 5 10 15 -5 8 -10 17 -16 21
-12 4 3 -7 21 -24 39 -17 17 -31 26 -30 18z"/>
<path d="M3655 5799 c-4 -6 -5 -12 -2 -15 2 -3 7 2 10 11 7 17 1 20 -8 4z"/>
<path d="M3708 5803 c7 -3 16 -2 19 1 4 3 -2 6 -13 5 -11 0 -14 -3 -6 -6z"/>
<path d="M2928 5098 c-21 -12 -38 -25 -38 -30 0 -8 67 29 76 43 7 13 4 11 -38
-13z"/>
<path d="M2725 4849 c-4 -6 -5 -12 -2 -15 2 -3 7 2 10 11 7 17 1 20 -8 4z"/>
<path d="M7170 4999 c0 -5 5 -7 10 -4 6 3 10 8 10 11 0 2 -4 4 -10 4 -5 0 -10
-5 -10 -11z"/>
<path d="M7240 4995 c0 -8 2 -15 4 -15 2 0 6 7 10 15 3 8 1 15 -4 15 -6 0 -10
-7 -10 -15z"/>
<path d="M7306 4846 c3 -9 11 -16 16 -16 13 0 5 23 -10 28 -7 2 -10 -2 -6 -12z"/>
<path d="M7128 4708 c7 -7 12 -21 12 -32 0 -10 3 -17 6 -13 10 10 -5 57 -18
57 -9 0 -9 -3 0 -12z"/>
<path d="M7195 4610 c-3 -6 1 -7 9 -4 18 7 21 14 7 14 -6 0 -13 -4 -16 -10z"/>
<path d="M7206 4571 c-3 -5 0 -14 8 -20 11 -9 15 -7 19 9 5 20 -16 29 -27 11z"/>
<path d="M7203 4517 c0 -15 3 -27 8 -27 16 0 18 17 5 35 -13 17 -13 17 -13 -8z"/>
<path d="M7240 4518 c0 -15 -4 -29 -10 -33 -10 -6 -2 -35 10 -35 13 0 21 61
10 78 -8 14 -9 12 -10 -10z"/>
<path d="M5869 4233 c-13 -16 -12 -17 4 -4 9 7 17 15 17 17 0 8 -8 3 -21 -13z"/>
<path d="M5730 3771 c0 -9 30 -24 36 -18 2 1 -6 8 -16 15 -11 7 -20 8 -20 3z"/>
<path d="M5785 3640 c3 -5 12 -7 20 -3 21 7 19 13 -6 13 -11 0 -18 -4 -14 -10z"/>
<path d="M9035 7535 c-65 -31 -124 -47 -430 -120 -121 -29 -530 -119 -640
-141 -91 -18 -195 -53 -195 -65 0 -6 14 -24 30 -42 17 -18 81 -104 143 -191
62 -88 124 -173 138 -190 l26 -30 65 12 c87 16 123 15 138 -3 26 -31 110 -169
110 -181 0 -6 -17 -23 -37 -37 -21 -15 -57 -44 -81 -65 l-43 -38 84 -170 c46
-94 98 -213 117 -265 18 -52 36 -97 39 -101 4 -4 32 27 63 70 82 112 277 334
678 772 l216 235 -56 100 c-228 406 -275 485 -284 484 -6 0 -42 -16 -81 -34z
m87 -162 c25 -38 48 -75 51 -83 4 -8 16 -28 26 -45 46 -73 130 -225 122 -220
-5 3 -40 58 -77 123 -90 158 -164 272 -175 272 -9 0 -127 -35 -159 -47 -18 -7
-13 -6 -114 -32 -44 -12 -88 -21 -99 -21 -11 0 -43 -7 -71 -15 -84 -24 -515
-117 -527 -113 -13 4 189 55 371 93 69 15 166 36 215 47 110 24 344 88 365 99
24 13 25 12 72 -58z m-1065 -189 c-3 -3 -12 -4 -19 -1 -8 3 -5 6 6 6 11 1 17
-2 13 -5z m0 -20 c-3 -3 -12 -4 -19 -1 -8 3 -5 6 6 6 11 1 17 -2 13 -5z m4
-109 c7 -14 4 -12 -11 5 -11 14 -25 34 -31 45 -7 14 -4 12 11 -5 11 -14 25
-34 31 -45z m48 -70 c11 -19 17 -35 13 -35 -4 0 -17 18 -29 40 -26 49 -13 44
16 -5z m530 -81 c41 -64 81 -118 89 -121 8 -4 24 0 36 7 l21 12 -21 -22 c-15
-16 -28 -20 -43 -15 -11 3 -21 11 -21 16 0 6 -22 42 -48 82 -76 112 -103 157
-95 157 5 -1 41 -53 82 -116z m241 13 c0 -2 -10 -12 -22 -23 l-23 -19 19 23
c18 21 26 27 26 19z m-415 -447 c-10 -11 -23 -20 -29 -20 -6 0 0 9 14 20 32
25 38 25 15 0z m15 -190 c6 -11 8 -20 6 -20 -3 0 -10 9 -16 20 -6 11 -8 20 -6
20 3 0 10 -9 16 -20z m50 -107 c0 -13 2 -13 17 -2 15 13 15 12 3 -8 -17 -26
-26 -22 -32 12 -3 13 -1 22 3 19 5 -3 9 -12 9 -21z"/>
<path d="M6860 2165 c-170 -48 -557 -196 -670 -256 -84 -45 -121 -76 -156
-132 -29 -44 -54 -135 -54 -193 0 -89 104 -428 182 -593 38 -79 97 -139 172
-175 87 -41 162 -52 244 -36 164 32 490 160 653 257 208 122 291 275 252 463
-18 90 -83 262 -153 405 -66 137 -121 200 -209 241 -69 33 -181 41 -261 19z
m56 -615 c64 -146 64 -143 -4 -173 -85 -38 -253 -104 -282 -110 -25 -6 -27 -3
-68 120 -34 102 -40 130 -30 139 7 7 67 33 133 58 66 26 129 51 140 56 11 5
31 8 45 7 21 -2 31 -16 66 -97z m124 -225 c0 -2 -10 -9 -22 -15 -22 -11 -22
-10 -4 4 21 17 26 19 26 11z m-95 -55 c-3 -5 -12 -10 -18 -10 -7 0 -6 4 3 10
19 12 23 12 15 0z m-45 -20 c-8 -5 -19 -10 -25 -10 -5 0 -3 5 5 10 8 5 20 10
25 10 6 0 3 -5 -5 -10z m-50 -20 c-8 -5 -19 -10 -25 -10 -5 0 -3 5 5 10 8 5
20 10 25 10 6 0 3 -5 -5 -10z m-60 -25 c-14 -8 -47 -22 -75 -31 -27 -9 -56
-21 -62 -27 -8 -6 -13 -6 -13 0 0 5 35 23 78 40 84 34 111 40 72 18z m-217
-62 c-7 -2 -21 -2 -30 0 -10 3 -4 5 12 5 17 0 24 -2 18 -5z"/>
<path d="M3500 2055 c-121 -34 -177 -102 -263 -320 -79 -201 -126 -353 -133
-433 -15 -164 60 -300 211 -378 141 -74 473 -184 631 -209 180 -29 321 17 403
130 44 62 74 146 136 392 64 251 71 340 34 439 -45 118 -127 174 -374 254
-397 128 -536 155 -645 125z m730 -256 c10 -6 4 -7 -15 -3 -16 4 -37 11 -45
15 -10 6 -4 7 15 3 17 -4 37 -11 45 -15z m83 -30 c30 -15 76 -59 89 -84 6 -11
-7 -1 -28 22 -22 22 -52 48 -69 57 -16 8 -26 15 -22 16 5 0 18 -5 30 -11z
m-428 -266 c77 -25 142 -48 144 -49 6 -5 -59 -258 -69 -268 -9 -9 -275 72
-310 94 -13 8 -10 23 18 107 42 122 59 163 69 163 4 0 71 -21 148 -47z m-306
-304 c9 0 11 -3 4 -5 -15 -7 -73 23 -73 37 0 6 12 1 26 -10 15 -12 34 -21 43
-22z m112 -40 c111 -40 164 -56 241 -73 34 -8 52 -14 38 -14 -46 -1 -347 92
-369 113 -9 9 7 5 90 -26z"/>
<path d="M5850 1820 c-247 -30 -980 -37 -1248 -14 l-72 7 32 -69 c32 -67 32
-73 36 -229 2 -88 -1 -195 -5 -237 -5 -43 -6 -78 -3 -78 3 0 25 20 49 44 52
53 83 62 248 72 l121 7 7 -69 c5 -38 5 -168 2 -289 -4 -194 -8 -227 -27 -280
-12 -33 -26 -64 -31 -70 -5 -5 -9 -13 -9 -17 0 -4 144 -8 320 -8 176 0 320 1
320 3 0 2 -11 27 -25 56 -38 77 -43 122 -51 406 -6 215 -5 258 7 266 8 5 66 9
130 9 112 0 116 -1 165 -31 27 -17 64 -45 83 -61 18 -16 36 -27 38 -24 3 3 0
104 -6 223 -11 189 -11 227 3 288 8 39 18 78 21 88 8 19 4 19 -105 7z m-107
-117 c-7 -2 -21 -2 -30 0 -10 3 -4 5 12 5 17 0 24 -2 18 -5z m-158 -14 c-67
-7 -663 -13 -735 -7 -28 2 330 9 735 14 l70 1 -70 -8z m-795 -9 c-8 -5 -24 -9
-35 -9 -16 1 -16 2 5 9 35 11 48 11 30 0z"/>
</g>
</svg>
